<?xml version="1.0"?>
<svg xmlns:rdf="http://www.w3.org/1999/02/22-rdf-syntax-ns#" xmlns="http://www.w3.org/2000/svg" xmlns:cc="http://web.resource.org/cc/" xmlns:dc="http://purl.org/dc/elements/1.1/" xmlns:sodipodi="http://inkscape.sourceforge.net/DTD/sodipodi-0.dtd" id="svg4044" sodipodi:docname="punk_m1.svg" sodipodi:version="0.32" height="297mm" width="210mm" sodipodi:docbase="C:\foo\wikipedia\transfer">
 <sodipodi:namedview id="base" bordercolor="#666666" pagecolor="#ffffff" borderopacity="1.0"/>
 <path id="path4053" d="m472.5 1043.2c32.57-14.8 40.37-19.6 56.4-34.8 9-8.49 19.3-21.2 22.87-28.21 11.64-22.8 19.7-50.57 18.51-63.75-0.78-8.63-0.12-11.81 2.15-10.4 5.83 3.6 1.09 31.04-10.08 58.29-14.11 34.45-33.12 54.27-70.01 73.17-14.3 7.3-28.23 13.2-30.95 13.1-2.73-0.1 2.27-3.4 11.11-7.4zm48.24 0.8c4.76-3.5 14.97-12.2 22.69-19.2 19.54-17.9 17.62-10.7-2.52 9.4-9.96 10-18.99 16.5-22.69 16.4-5.52-0.1-5.26-0.8 2.52-6.6zm-172.65-1.1c-17.64-9.5-27.82-19-27.82-26.1 0-8.5 4.52-9.1 8.72-1.3 3.56 6.7 37.47 26.4 50.91 29.6 7.74 1.8 6.65 2.2-6.92 2.3-9.56 0.2-19.68-1.7-24.89-4.5zm-165.57-48.71c-3.6-4.14-10.65-8.36-15.66-9.36-14.18-2.86-39.24-16.21-52.79-28.14-16.431-14.46-60.575-78.32-70.517-102.01-6.377-15.19-7.689-22.13-6.621-35 1.202-14.5 2.541-17.13 13.863-27.17 6.892-6.12 14.544-11.13 17.004-11.13 2.459 0 8.619-3.16 13.689-7.03 20.402-15.56 44.312-16.76 64.252-3.23 14.99 10.18 14.36 1.17-0.91-12.92-7.87-7.26-12.11-14.11-13.57-21.88-1.53-8.16-6.1-15.15-16.37-25.05-10.14-9.77-14.38-16.21-14.69-22.32-0.731-14.01-0.854-14.38-7.662-23.04-3.596-4.57-6.537-10.26-6.537-12.65s-3.784-8.65-8.409-13.92c-11.041-12.57-14.846-40.99-7.759-57.95 2.552-6.11 3.862-12.36 2.91-13.9-0.951-1.54 0.874-2.8 4.056-2.8s6.224-1.12 6.761-2.48 5.938-1.87 12.003-1.13c13.217 1.59 35.947 20.7 47.007 39.52 4 6.82 11.32 15.38 16.25 19.01 4.94 3.63 14.34 14.5 20.9 24.16 6.55 9.65 13.02 17.55 14.36 17.55 2.29 0 13.14 10.74 30.83 30.53 5.9 6.59 8.46 7.76 11.13 5.09s2.28-5.46-1.68-12.16c-4-6.78-4.43-10.03-1.94-14.67 2.39-4.48 2.08-9.8-1.24-21.29-2.44-8.42-5.2-20.3-6.14-26.38s-2.89-10.33-4.34-9.43c-4.9 3.03-11.64-26.68-8.46-37.26 3.18-10.61 14.3-74.13 14.31-81.8 0.01-3.58-1.72-4.41-6.58-3.19-3.62 0.92-7.48 3.03-8.58 4.7s-2.95-0.85-4.11-5.6c-1.17-4.75-3.37-9.45-4.9-10.46-1.72-1.12-1.54-4.13 0.45-7.86 1.78-3.32 3.23-7.25 3.23-8.73s-11.08-8.36-24.62-15.29l-24.62-12.6-36.14 2.58c-42.98 3.06-95.965 2.69-99.224-0.71-1.279-1.33-1.198-13.62 0.178-27.31 6.838-68.02 5.2-134.97-4.691-191.7-2.308-13.24-2.964-24.43-1.517-25.87 1.447-1.45 6.431-0.55 11.525 2.09 11.707 6.05 11.243 6.25 13.469-5.62 1.228-6.55 5.057-12.58 10.575-16.66 4.758-3.51 8.65-8.03 8.65-10.02 0-8.2 8.952-12.88 21.441-11.21 20.174 2.7 41.684 9.97 51.964 17.55 9.19 6.78 10.05 6.9 17.19 2.38 4.13-2.61 11.13-8.12 15.56-12.24l8.05-7.49 0.2 11.53c0.45 26.07 2.45 39.14 7.08 46.19 4.55 6.95 4.55 8.13 0 17.73-5.12 10.79-5.09 12.3 1.84 74.92 1.68 15.26 3.69 28.77 4.47 30.02 0.77 1.24 0.23 2.27-1.2 2.27-6.09 0-13.65-77.54-14.96-153.56l-0.36-20.31-8.05 7.71c-4.43 4.24-14.25 10.45-21.82 13.8l-13.76 6.08 1.7 14.36c1.52 12.86 0.9 15.1-6 21.49-5.17 4.79-7.71 10.17-7.71 16.32 0 5.05-1.31 9.18-2.92 9.18s-2.93 1.9-2.93 4.22-1.16 4.94-2.57 5.81c-1.4 0.87-1.87-4.54-1.02-12.02 1.35-12.03 0.94-13.38-3.54-11.66-2.785 1.06-8.911 1.94-13.611 1.94-7.542 0-8.545 1.03-8.545 8.78 0 4.84-1.228 8.79-2.729 8.79-1.5 0-2.335-3.62-1.854-8.05 1.51-13.92-0.788-16.11-14.684-14.03-10.672 1.6-13.048 1-15.689-3.93-1.712-3.2-3.113-9.89-3.113-14.87 0-7.02-1.685-9.69-7.511-11.9-14.819-5.64-14.921-5.37-11.033 28.62 8.052 70.4 8.063 111.71 0.051 198.4-0.512 5.54 1.168 5.84 31.671 5.64 48.417-0.31 125-4.68 132.83-7.58 5.49-2.03 6.21-3.39 3.52-6.64-2.56-3.07-2.56-4.59-0.02-6.16 4.48-2.77 2.17-24.11-7.67-70.92-0.76-3.62-0.22-6.59 1.2-6.59s4.18 9.92 6.13 22.03l3.56 22.03 15.15 7.99c8.33 4.39 19.1 8.03 23.93 8.08s10.51 1.16 12.62 2.47 12.89 1.48 23.96 0.37c14.67-1.48 21.56-3.62 25.45-7.92 2.93-3.24 10.31-8.43 16.41-11.54 14.03-7.16 11.6-11.29-6.63-11.29-18.08 0-23.49-2.13-23.49-9.25 0-6.41 7.3-21.93 13.82-29.37 2.38-2.72 3.35-6.52 2.15-8.45-1.54-2.5-3.52-1.74-6.87 2.63-5.16 6.75-14.88 7.86-40.55 4.63-10.16-1.28-17.58-4.17-21.96-8.54-3.64-3.64-11.72-8.02-17.95-9.74-12.19-3.37-22.35-10.93-22.35-16.65 0-5.43 11.83-19.24 14.88-17.36 1.48 0.91 2.69-0.4 2.69-2.93 0-3.82 0.96-3.99 5.73-1.01 10.68 6.67 9.95-0.55-1.02-10.12-9.61-8.37-11.12-11.54-12.62-26.4-1.94-19.23 2.33-26.81 16.89-30.01 7.58-1.67 8.2-2.71 6.59-11.15-0.97-5.12-2.19-9.81-2.71-10.42-2.29-2.72 5.72-12.59 12.21-15.06 3.93-1.49 7.15-4.73 7.15-7.18 0-5.03-4.57-5.99-7.33-1.54-2.73 4.43-7.32 3.51-7.32-1.46 0-2.42-1.15-4.39-2.57-4.39-1.41 0-4.21 1.97-6.21 4.39-2.01 2.41-4.54 4.39-5.63 4.39-2.85 0-0.09-20.24 3.02-22.16 5.05-3.12 2.54-7.49-3.25-5.66-9.62 3.05-6.63-3.05 4.39-8.99 12-6.46 12.24-7.34 4.1-14.71-6.62-5.99-14.35-19.305-14.35-24.731 0-1.834 4.06 0.077 9.01 4.247 9.07 7.625 14.42 9.574 14.42 5.247 0-1.283-5.8-11.166-12.89-21.962-7.92-12.061-11.37-19.63-8.94-19.63 2.17 0 12.66 6.589 23.3 14.642s19.93 14.642 20.65 14.642 1.31-4.665 1.31-10.366 2.73-15.71 6.06-22.241c6.44-12.624 31.31-39.352 34.05-36.603 0.9 0.899-2.35 7.945-7.23 15.656-4.87 7.712-9.74 18.633-10.82 24.27l-1.96 10.25 10.37-11.714c8.46-9.55 10.9-10.92 13.21-7.42 2.29 3.471 3.43 2.733 5.93-3.851 1.71-4.479 3.27-9.706 3.48-11.614 0.22-1.909 1.21 1.142 2.22 6.779l1.83 10.25 11.69-24.009c15.25-31.298 25.52-33.024 14.63-2.459-4.77 13.403-2.85 17.763 3.6 8.165 2.44-3.624 5.47-6.588 6.73-6.588s1.66 2.964 0.89 6.588c-1.4 6.531-1.36 6.537 3.56 0.732 4.82-5.684 4.91-5.577 3.22 3.661-2.43 13.226 2.37 11.911 8.01-2.196 2.58-6.443 6.04-11.714 7.7-11.714 2.94 0 2.43 4.173-3.21 26.324l-2.6 10.219 15.33-16.595c12.08-13.073 19.57-18.232 35.31-24.305 10.98-4.24 22.84-7.2537 26.35-6.6971 5.02 0.7954 2.62 2.9701-11.19 10.16-18.43 9.597-40.93 27.803-37.99 30.743 0.95 0.947 7.58-1.392 14.73-5.196 14.37-7.637 16.3-6.559 6.65 3.71l-6.37 6.777h6.54c3.62 0 5.73 1.31 4.73 2.929-0.99 1.61-0.16 2.928 1.86 2.928s10.78-7.345 19.48-16.323c8.69-8.978 16.29-15.838 16.88-15.246 1.88 1.878-15.82 26.821-22.72 32.03-3.65 2.747-5.79 5.836-4.76 6.864 2.14 2.134 24.52-8.641 27.3-13.14 1.01-1.633 3.34-2.97 5.17-2.97s-0.88 4.346-6.03 9.657c-10.35 10.677-12.1 15.377-4.23 11.357 8.03-4.105 24.15-6.507 24.15-3.598 0 1.446-4.5 4.116-10.01 5.934-12.8 4.224-19.87 11.79-11.02 11.79 10.19 0 9.61 4.634-1.21 9.794-9.26 4.413-11.41 10.703-3.66 10.703 5.13 0 20.21 12 18.52 14.74-0.87 1.42-3.52 1.83-5.89 0.93-5.36-2.06-5.35-1.15 0.35 18.45 5.46 18.77 3.37 30.55-3.29 18.59l-4.08-7.32-0.19 10.25c-0.18 9.32-0.56 9.77-4.22 4.95-6.12-8.08-8.32-0.86-3.36 11.03 4.1 9.82 4.03 10.38-1.37 10.38-6.91 0-6.97 0.77-1.04 12.24 3.17 6.12 4.06 12.44 2.76 19.62-1.87 10.4-3.47 23.19-4.15 33.22-0.38 5.49-11.5 13.99-19.93 15.22-4.07 0.6-5.44 3.98-6.14 15.14-0.5 7.9-3.06 20.59-5.7 28.19-3.95 11.34-5.55 13.2-8.95 10.38-3.5-2.91-3.93-0.78-2.79 14 0.74 9.59 2.38 20.73 3.65 24.76l2.31 7.32-7.74-7.09c-8.82-8.07-8.66-8.14-12.75 5.63l-3.04 10.25-2.35-13.18-2.35-13.18-3.75 8.79c-5.24 12.24-4.91 15.43 1.83 17.57 4.07 1.29 5.86 4.43 5.86 10.27 0 11.07 5.47 14.09 11.38 6.29 4.44-5.87 5.25-5.98 13.51-1.8 10.89 5.51 19.03 14.92 19.03 22 0 4.96 10.05 14.48 15.3 14.48 1.25 0 2.27-10.54 2.27-23.43 0-14.43-1.18-23.42-3.08-23.42-1.69 0-4.44-3.9-6.1-8.67-1.66-4.76-5.54-9.46-8.63-10.44-12.86-4.09-9.51-27.69 4.87-34.24 6.81-3.1 7.45-4.68 5.9-14.4-2.21-13.82 1.67-24.01 14.6-38.32 10.21-11.3 10.24-11.43 9.76-37.62-0.36-19.66-1.56-26.88-4.77-28.68-6.37-3.56-3.73-16.76 3.12-15.58 3.12 0.53 4.63-0.35 3.57-2.07-2.82-4.57 5.85-22.87 12.53-26.45 3.26-1.74 8.59-3.16 11.85-3.16 3.27 0 11.16-5.27 17.53-11.71 6.38-6.45 13.62-11.72 16.09-11.72 9 0 19.18 6.87 21.95 14.81 1.81 5.19 5.3 8.5 9.62 9.12 5.23 0.74 7.17 3.34 8.46 11.31 0.91 5.7 2.62 11.89 3.78 13.77 3.24 5.25-7.67 9.53-19.42 7.63-5.76-0.94-14.73-0.22-19.93 1.59-7.86 2.75-10.36 2.48-14.85-1.58-2.96-2.68-5.75-4.33-6.2-3.67-4.54 6.73-7.41 17.69-6.82 26.09 0.4 5.64 0.96 17.58 1.27 26.54 0.52 15.59 0.99 16.52 10.95 21.26 6.62 3.16 11.91 8.56 14.53 14.82 2.26 5.41 6.76 10.54 9.99 11.38 3.23 0.85 8.17 6.62 10.97 12.82 2.81 6.2 7.64 14.18 10.73 17.74 4.49 5.14 5.35 9.47 4.21 21.31-0.79 8.18-0.3 15.56 1.08 16.42 3.73 2.3 3.03 20-0.96 23.99-5.15 5.15-0.72 7.71 12.02 6.96 18.92-1.12 26.82 12.39 14.79 25.3-8.43 9.05-18.72 10.84-30.4 5.3-5.46-2.59-11.38-4.71-13.15-4.71-4.55 0-4 12.63 1.49 34.5 9.48 37.82 0.62 76.03-23.6 101.71-11.62 12.33-14.57 12.58-24.59 2.09-9.12-9.53-33.75-27.14-44.75-31.97-8.7-3.83-14.26-0.53-14.26 8.46 0 5.69-4.39 7.1-7.33 2.34-0.99-1.61-4.36-2.93-7.49-2.93s-5.68-1.95-5.68-4.35c0-4.8-19.6-14.19-25.16-12.05-1.93 0.73-6.59 7.69-10.35 15.46-3.77 7.77-9.98 19.01-13.8 24.98l-6.95 10.86 6.17 7.84c3.39 4.31 6.16 9.22 6.16 10.91 0 1.7 2.74 5.99 6.09 9.56 5.88 6.26 5.91 6.68 0.81 12.63-2.9 3.39-6.91 6.16-8.92 6.16-2.04 0-2.91 1.93-1.97 4.39 0.93 2.42 4.02 4.39 6.87 4.39 7.14 0 10.85 5.27 13.43 19.03 1.32 7.08 5.47 14.77 10.51 19.47 5.47 5.12 8.32 10.71 8.32 16.34 0 5.32 2.74 11.14 7.21 15.34 6.04 5.67 7.2 9.46 7.12 23.21-0.18 28.99 0.39 32.92 6.59 45.07 3.35 6.56 6.81 19.93 7.69 29.71 1.62 17.99 11 36.45 15.99 31.46 2.9-2.9 3.08-13.57 1.2-71.81-0.78-23.93-2.92-47.15-4.77-51.6-2.64-6.39-2.45-10.27 0.9-18.29 5.25-12.55 3.42-31.75-4.25-44.76-4.46-7.55-5.53-14.57-5.18-33.9 0.41-22.5 1.07-25 8.64-32.57 19.87-19.87 58.69 0.5 81.26 42.65 3.33 6.21 9.11 14.8 12.84 19.08 38.41 44.04 56.23 69.82 64.05 92.64 2.2 6.42 3.98 22.31 3.95 35.31-0.06 26.47-5.77 39.71-22.15 51.38-11.73 8.34-32.06 10.72-37.34 4.36-2.15-2.59-6.05-4.71-8.67-4.71-9.8-0.03-23.66-11.7-30.26-25.49-5.37-11.22-6.7-18.89-6.61-38.19 0.1-24.74-1.54-27.75-10.68-19.48-4.22 3.82-4.6 6.11-2.06 12.44 1.71 4.27 2.97 20.85 2.79 36.84-0.2 18.11 1.31 34.59 4.03 43.72 5.97 20.11 5.45 43.41-1.53 68.61-3.76 13.57-5.78 29.38-5.6 43.87 0.41 32.65-5.92 44.6-23.62 44.6-17.51 0-30.6-16.4-38.54-48.31-2.01-8.06-7.74-20.57-12.75-27.82-10.94-15.86-18.4-33.91-22.13-53.63-1.53-8.03-7.38-21.55-13.02-30.04-5.63-8.48-10.24-16.62-10.24-18.09 0-1.46-4.02-8.73-8.94-16.15l-8.93-13.49-10.5 6.19c-17.51 10.33-41.45 8.84-68.26-4.25-12.08-5.9-29.87-17.36-39.54-25.47-9.66-8.11-22.45-17.42-28.42-20.69l-10.86-5.93 8.66 18.3c4.76 10.06 8.66 20.27 8.67 22.69 0 2.41 5.14 12.1 11.4 21.53 6.27 9.42 13.66 22.6 16.43 29.28 12.9 31.12 33.08 68.56 41.66 77.28 5.2 5.3 11.52 13.6 14.02 18.45 4.18 8.08 4.14 9.54-0.5 17.4-4.37 7.39-4.53 9.6-1.18 15.87 6.12 11.43 2.1 28.11-9.03 37.53-13.12 11.09-43.52 20.45-71.79 22.07-22.81 1.4-24.17 1.1-30.42-6.11zm28.61-0.8c-0.98-0.98-3.5-1.08-5.62-0.24-2.33 0.94-1.64 1.63 1.77 1.77 3.09 0.13 4.82-0.56 3.85-1.53zm-14.85-5.41c-1.15-2.98-0.23-3.7 3.09-2.43 3.12 1.2 4.02 0.67 2.63-1.57-1.15-1.86-4.99-2.84-8.53-2.18s-7.59 1.3-9 1.42c-1.4 0.12-0.91 2.2 1.09 4.61 4.73 5.69 12.89 5.81 10.72 0.15zm40.53 1.32c1-1.61 0.42-2.93-1.29-2.93s-3.1 1.32-3.1 2.93 0.58 2.93 1.29 2.93 2.11-1.32 3.1-2.93zm-1.46-13.43c8.86-3.84 18.74-6.44 21.96-5.78 3.22 0.65 8.49 1.31 11.71 1.46 4.78 0.22 5.06 0.77 1.55 2.99-2.37 1.5-3.35 3.68-2.18 4.85 3.52 3.52 16.74-11.1 16.74-18.51 0-3.8-2.08-7.7-4.61-8.68-3-1.14-4.06-3.95-3.04-8.01 1.3-5.19-0.31-6.83-9.51-9.7-26.41-8.25-42.03-20.84-70.61-56.95-15.25-19.27-34.14-40.56-41.97-47.3-22.22-19.12-57.844-39.98-67.925-39.77l-8.785 0.18 8.785 4.22 8.785 4.23-9.517-1.77c-13.97-2.6-11.818 3.26 3.723 10.14 22.484 9.94 39.444 23.55 80.624 64.7 47.38 47.34 59.07 57.07 86.97 72.32 11.67 6.39 20.35 12.49 19.27 13.57-3.26 3.27-11.78 2.19-15.19-1.93-1.77-2.13-10.21-7.41-18.76-11.73-11.12-5.63-25.9-18.8-52.04-46.38-63.12-66.57-95.031-89.38-126-90.05-31.688-0.69-28.247 29.89 9.959 88.5 8.922 13.69 24.11 33.32 33.751 43.63 18.99 20.3 45.78 36.34 55.53 33.25 3.5-1.11 7.65 0.09 10.63 3.07 3.14 3.15 5.89 3.88 7.72 2.06 3.79-3.79-24.48-21.32-34.89-21.63l-7.85-0.23 8.21-2.99c8.36-3.05 10.2-13.58 2.04-11.73-15.33 3.47-19.98 2.73-7.71-1.24 7.85-2.54 20.25-7.79 27.56-11.68s13.9-6.46 14.64-5.72c0.75 0.74-4.74 4.3-12.18 7.92s-13.53 7.63-13.53 8.92c0 3.41 22.75 2.88 24.89-0.58 1-1.61 3.05-2.93 4.57-2.93 1.51 0 0.12 2.63-3.11 5.85-3.22 3.23-7.33 5.86-9.14 5.86-2.3 0-2.21 1.29 0.29 4.31 3.12 3.76 5.01 3.57 14.88-1.47 13.23-6.75 18.34-7.4 10.29-1.31-3.1 2.35-5.08 4.71-4.39 5.25 0.69 0.53 5.49 3.9 10.67 7.47l9.41 6.5 14.83-6.38c8.16-3.51 15.54-5.68 16.4-4.82 1.69 1.69-28.67 16.81-33.77 16.81-1.71 0-3.11 1.27-3.11 2.83s-1.99 2.07-4.43 1.14c-3.19-1.22-3.91-0.36-2.58 3.11 2.11 5.48 5.88 4.75 30.44-5.87zm-80.71-8.44c-3.12-2.37-4.36-4.3-2.75-4.3s5.48 1.93 8.61 4.3c3.13 2.36 4.37 4.3 2.76 4.3s-5.49-1.94-8.62-4.3zm55.98-9.12c-3.12-2.28-4.44-4.13-2.92-4.11 4.05 0.07 11.6 5.27 9.99 6.88-0.76 0.76-3.94-0.48-7.07-2.77zm11.55-4.15c-1-1.61-0.42-2.93 1.29-2.93s3.1 1.32 3.1 2.93-0.58 2.93-1.29 2.93-2.11-1.32-3.1-2.93zm-96.57-23.54c0.96-1.55 3.31-2.85 5.23-2.89s11.33-3.29 20.91-7.23c19.13-7.86 26.68-7.73 8.52 0.15-17.56 7.62-36.59 13.09-34.66 9.97zm-7.39-14.53c4.03-1.29 9.3-2.46 11.72-2.59 3.9-0.22 3.9 0.07 0 2.59-2.42 1.56-7.69 2.73-11.72 2.59l-7.32-0.25 7.32-2.34zm22.05-6.68c8.1-5.26 27.73-14 27.73-12.36s-28.12 16.11-31.3 16.11c-1.21 0 0.39-1.69 3.57-3.75zm-38.15-4.44c4.76-4.69 48.31-23.85 48.31-21.26 0 2.14-11.18 7.57-40.99 19.9-5.64 2.33-8.93 2.94-7.32 1.36zm-11.662-18.25c0.965-1.56 3.324-2.87 5.243-2.91 1.918-0.03 11.369-3.91 20.989-8.61 19.9-9.71 26.25-9.73 7.23-0.02-16.73 8.53-35.632 15.05-33.462 11.54zm-1.519-21.88c9.582-5.47 14.771-5.41 7.493 0.1-3.126 2.36-7.738 4.25-10.249 4.19-2.926-0.06-1.937-1.6 2.756-4.29zm18.861-8.88c3.13-2.36 7.08-4.25 8.79-4.2 1.7 0.05 0.54 2.03-2.59 4.39-3.12 2.37-7.08 4.26-8.78 4.21-1.71-0.05-0.55-2.03 2.58-4.4zm-34.821-6.75c6.36-5.63 24.743-15.41 24.722-13.16-0.012 1.34-5.215 5.4-11.561 9.03-11.564 6.6-18.376 8.74-13.161 4.13zm-2.907-22.2c3.124-2.28 6.303-3.53 7.064-2.77 1.612 1.62-5.94 6.82-9.987 6.88-1.516 0.03-0.2-1.82 2.923-4.11zm127.22 145.77c0-1.03-2.31-3.62-5.13-5.76-2.81-2.14-3.64-3.93-1.82-3.98 1.82-0.06 4.94 1.88 6.95 4.3 2 2.41 6.45 4.34 9.87 4.28 5.69-0.09 5.47-0.73-2.55-7.3-8.87-7.28-19.04-9.62-19.04-4.4 0 3.89-9.46 0.04-13.71-5.58-2.82-3.73-4.17-3.88-7.27-0.82-3.11 3.08-2.62 4.07 2.73 5.47 3.6 0.94 6.54 2.71 6.54 3.93s4.28 4.33 9.52 6.91c10.34 5.1 13.91 5.86 13.91 2.95zm260.62-6.91c-5.73-3.7-9.61-3.7-7.32 0 1 1.61 4.04 2.91 6.76 2.88 4.27-0.03 4.35-0.43 0.56-2.88zm16.77-2.89c-0.26-3.46-1.51-4.75-3.08-3.19-1.45 1.46-1.75 4.08-0.67 5.83 2.95 4.77 4.24 3.86 3.75-2.64zm-25.55-4.26c0-0.71-1.32-2.1-2.93-3.1-1.61-0.99-2.93-0.41-2.93 1.29 0 1.71 1.32 3.1 2.93 3.1s2.93-0.58 2.93-1.29zm20.29-11.15c0.11-1.21-0.96-2.2-2.38-2.2-3.18 0-6.24 10.69-3.78 13.16 1.62 1.62 5.65-5.56 6.16-10.96zm8.99 3.66c0-1.61-1.32-2.93-2.93-2.93s-2.93 1.32-2.93 2.93 1.32 2.93 2.93 2.93 2.93-1.32 2.93-2.93zm-17.57-5.86c0-1.61-1.32-2.93-2.93-2.93s-2.93 1.32-2.93 2.93 1.32 2.93 2.93 2.93 2.93-1.32 2.93-2.93zm-8.78-2.61c0-3.68-8.67-6.59-12.52-4.21-2 1.23-1.07 2.81 2.46 4.19 7.81 3.06 10.06 3.07 10.06 0.02zm21.34-6.17c0.84-3.22 0.34-6.59-1.12-7.49-1.46-0.91-2.65-0.36-2.65 1.22 0 1.57-0.8 4.94-1.78 7.49s-0.47 4.63 1.12 4.63c1.6 0 3.59-2.63 4.43-5.85zm10.87 4.56c0-3.09-5.62-4.39-7.29-1.68-1.02 1.64 0.21 2.97 2.72 2.97s4.57-0.58 4.57-1.29zm-21.97-4.56c1-1.61 0.42-2.93-1.29-2.93-1.7 0-3.1 1.32-3.1 2.93s0.58 2.93 1.29 2.93 2.11-1.32 3.1-2.93zm-184.87-15.42c-4.82-5.21-10.38-13.27-12.35-17.9-1.97-4.64-4.42-7.61-5.43-6.59-2.76 2.75 4.99 16.7 15.11 27.2 11.65 12.1 14.09 9.62 2.67-2.71zm162.91 9.8c0-1.48 0.8-4.77 1.78-7.32 1.17-3.04 0.16-4.63-2.93-4.63-3.07 0-4.7 2.55-4.7 7.32 0 4.02 1.31 7.32 2.92 7.32s2.93-1.21 2.93-2.69zm42.8-3.86c-0.33-6.44-10.59-11.65-10.59-5.38 0 1.73 1.32 3.14 2.93 3.14s2.93 1.98 2.93 4.4c0 2.41 1.14 4.39 2.53 4.39s2.38-2.95 2.2-6.55zm-25.23-1.79c0-1.17-2.63-2.33-5.85-2.57-3.23-0.24-5.86 0.52-5.86 1.68 0 1.17 2.63 2.32 5.86 2.57 3.22 0.24 5.85-0.52 5.85-1.68zm-165.76-8.01c2.36-6.14 2.25-7.08-0.81-7.08-1.43 0-3.28 2.64-4.12 5.86-1.81 6.91 2.35 7.95 4.93 1.22zm144.59-6.53c0.64-1.91-0.92-3.48-3.47-3.48s-4.64 2.09-4.64 4.64c0 5.17 6.3 4.27 8.11-1.16zm7.99 2.38c1-1.61 0.42-2.93-1.29-2.93-1.7 0-3.1 1.32-3.1 2.93s0.58 2.93 1.29 2.93 2.11-1.32 3.1-2.93zm39.54-0.07c0-1.65-3.38-4.29-7.51-5.86-9.8-3.72-10.06-3.68-10.06 1.88 0 3.29 1.78 4.27 5.85 3.2 3.23-0.84 5.86-0.33 5.86 1.12 0 1.46 1.32 2.66 2.93 2.66s2.93-1.35 2.93-3zm-25.16-7.08c-3.51-2.57-4-4.29-1.64-5.75 3.97-2.46 4.5-7.6 0.78-7.6-1.42 0-3.27 2.64-4.12 5.87-1.02 3.92-3.08 5.27-6.2 4.08-2.62-1.01-4.66-0.29-4.66 1.63 0 1.87 1.23 2.65 2.73 1.72 1.5-0.92 3.56-0.32 4.59 1.34 1.03 1.67 3.1 2.27 4.6 1.34 1.5-0.92 2.72-0.21 2.72 1.59s1.4 2.41 3.11 1.36c1.97-1.22 1.28-3.25-1.91-5.58zm-172.63 1.5c0.92-1.5 0.34-3.56-1.29-4.57-1.64-1.01-2.98 0.22-2.98 2.73 0 5.14 1.76 5.9 4.27 1.84zm153.86-6.06c0-1.61-1.32-2.93-2.93-2.93s-2.92 1.32-2.92 2.93 1.31 2.93 2.92 2.93 2.93-1.32 2.93-2.93zm46.12-4.64c-2.79-2.79-8.38 1.73-6.3 5.09 1.23 2 2.87 1.95 4.97-0.15 1.73-1.72 2.33-3.95 1.33-4.94zm-248-2.47c-1.97-2.38-2.83-7.35-1.91-11.05 0.93-3.71 0.92-5.08-0.01-3.06-0.92 2.03-2.89 2.94-4.36 2.03s-2.68-0.21-2.68 1.55c0 4.48 9.26 18.14 11.06 16.34 0.82-0.82-0.13-3.43-2.1-5.81zm40.82 2.71c0-2.41-1.32-4.39-2.93-4.39s-2.92 1.98-2.92 4.39c0 2.42 1.31 4.4 2.92 4.4s2.93-1.98 2.93-4.4zm152.28 1.78c0-2.97-8.92-7.01-10.96-4.97-0.74 0.74-0.47 2.75 0.59 4.46 2.33 3.78 10.37 4.18 10.37 0.51zm-161.06-7.63c0-2.42-0.52-4.39-1.15-4.39-0.64 0-1.91 1.97-2.84 4.39-0.93 2.41-0.41 4.39 1.15 4.39s2.84-1.98 2.84-4.39zm166.71-10.98c0.11-1.21-1.11-2.2-2.72-2.2-1.62 0-2.6 1.19-2.2 2.64s-0.59 2.68-2.2 2.73c-1.61 0.06-2.63-2.12-2.28-4.83 0.36-2.74-0.07-3.3-0.97-1.27-0.9 2.01-3.57 3.66-5.95 3.66-2.48 0-3.44-1.42-2.26-3.33 1.14-1.86-1.05-5.76-4.95-8.82-3.86-3.03-4.99-4.79-2.52-3.92 3.01 1.05 4.65-0.39 4.94-4.36 0.25-3.26-0.86-5.93-2.47-5.93-1.6 0-2.05 1.41-0.99 3.13 1.16 1.87-0.23 2.75-3.48 2.19-6.64-1.13-5.98 8.91 0.93 14.26 2.47 1.9 3.61 4.88 2.54 6.6-1.92 3.1 2.42 5.85 11.29 7.15 2.5 0.37 5.52 1.65 6.73 2.86 1.94 1.93 6-4.61 6.56-10.56zm44.13 11.31c0-3.39-8.14-16.11-9.46-14.79-2 2 4.34 15.87 7.26 15.9 1.21 0.01 2.2-0.49 2.2-1.11zm-217.37-5.27c-0.64-1.92-2.73-4-4.64-4.64-2.14-0.71-2.79 0.62-1.7 3.48 2.04 5.32 8.1 6.43 6.34 1.16zm226.15 2.18c0-0.71-1.31-2.1-2.92-3.1-1.61-0.99-2.93-0.41-2.93 1.29 0 1.71 1.32 3.1 2.93 3.1s2.92-0.58 2.92-1.29zm0-8.64c0-0.64-1.97-1.91-4.39-2.84-2.41-0.93-4.39-0.41-4.39 1.15s1.98 2.84 4.39 2.84c2.42 0 4.39-0.52 4.39-1.15zm-49.78-7.64c0-1.61-1.32-2.92-2.93-2.92s-2.92 1.31-2.92 2.92 1.31 2.93 2.92 2.93 2.93-1.32 2.93-2.93zm21.04-3.56c-2.1-2.1-3.47-2.27-3.47-0.44 0 3.91 3.47 7.37 5.42 5.42 0.83-0.83-0.05-3.07-1.95-4.98zm-29.82 0.64c0-1.62-0.58-2.93-1.29-2.93s-2.11 1.31-3.11 2.93c-0.99 1.61-0.41 2.92 1.3 2.92 1.7 0 3.1-1.31 3.1-2.92zm40.99 1.63c0-0.71-1.31-2.1-2.92-3.1-1.61-0.99-2.93-0.41-2.93 1.29 0 1.71 1.32 3.1 2.93 3.1s2.92-0.58 2.92-1.29zm20.5-1.66c0-4.51-5.99-6.44-9.91-3.18-2.09 1.73-4.67 2.29-5.73 1.23s-1.93-0.59-1.93 1.04c0 1.64 3.96 3.08 8.79 3.22s8.78-0.9 8.78-2.31zm-49.82-12.59c-0.04-5.22-0.58-5.6-2.89-2.03-3.73 5.77-3.73 12.56 0 10.25 1.61-0.99 2.91-4.69 2.89-8.22zm-8.74 5.47c0-0.71-1.32-2.11-2.93-3.1-1.61-1-2.93-0.42-2.93 1.29 0 1.7 1.32 3.1 2.93 3.1s2.93-0.58 2.93-1.29zm32.21-1.47c0-1.51-1.32-3.57-2.93-4.56-1.61-1-2.93 0.24-2.93 2.75s1.32 4.57 2.93 4.57 2.93-1.24 2.93-2.76zm22.15-1.16c2.58 0.99 4.2-0.2 4.2-3.09 0-4.87-3.39-6.2-6.89-2.69-4.73 4.73-13.3 2.45-16.4-4.36-1.81-3.96-3.88-6.6-4.61-5.87-2.64 2.65 6.04 16.97 9.51 15.67 1.96-0.74 4.51 0.18 5.66 2.05 1.56 2.53 2.37 2.53 3.21 0.03 0.61-1.84 3.01-2.62 5.32-1.74zm-292.45-21.85c-20.36-31.48-49.26-60.6-64.32-64.82-13.58-3.8-33.304-2.53-43.248 2.79-9.085 4.87-4.725 7.04 6.361 3.18 5.887-2.05 10.517-2.27 12.217-0.57 1.51 1.5 4.4 2.1 6.42 1.32 2.03-0.77 6.34 1.96 9.59 6.09 5.54 7.04 11.78 10.72 8.11 4.77-3.85-6.21 4.22-5.57 9.18 0.74 2.97 3.77 6.98 6.32 8.93 5.67 4.99-1.66 32.72 26.74 45.92 47.03 6.1 9.37 11.74 16.38 12.54 15.59 0.8-0.8-4.46-10.61-11.7-21.79zm210.78 15.06c-1.06-1.06-0.52-3.62 1.2-5.7 2.31-2.79 1.62-4.7-2.66-7.38-3.19-1.98-5.12-5.35-4.31-7.48 0.82-2.13 0.15-3.87-1.49-3.87-3.9 0-2.19 15.57 1.85 16.91 1.71 0.57 2.38 2.93 1.49 5.24s0.07 4.2 2.12 4.2 2.86-0.86 1.8-1.92zm21.45-1c0-1.62-1.4-2.93-3.1-2.93-1.71 0-2.29 1.31-1.29 2.93 0.99 1.61 2.39 2.92 3.1 2.92s1.29-1.31 1.29-2.92zm8.78 0c0-1.62-1.31-2.93-2.92-2.93-1.62 0-2.93 1.31-2.93 2.93 0 1.61 1.31 2.92 2.93 2.92 1.61 0 2.92-1.31 2.92-2.92zm-199.12-1.3c0-0.71-1.32-2.1-2.93-3.1-1.61-0.99-2.93-0.41-2.93 1.29 0 1.71 1.32 3.11 2.93 3.11s2.93-0.59 2.93-1.3zm182.84-6.76c1.06-4.43 2.61-10.36 3.44-13.18 0.84-2.81 0.12-5.12-1.6-5.12s-3.13 1.9-3.13 4.22-1.42 5.1-3.16 6.18c-2 1.23-2.81-0.49-2.2-4.68 0.56-3.81-0.79-7.24-3.16-8.04-2.84-0.97-3.55 0.08-2.28 3.38 1.01 2.64 0.56 4.8-1 4.8-6.16 0-2.37 5.34 5.21 7.36 4.43 1.18 6.41 2.75 4.4 3.49-4.16 1.53-5.04 9.65-1.05 9.65 1.43 0 3.47-3.63 4.53-8.06zm39.71 6.76c0-0.71-1.32-2.1-2.93-3.1-1.61-0.99-2.93-0.41-2.93 1.29 0 1.71 1.32 3.11 2.93 3.11s2.93-0.59 2.93-1.3zm30.22-4.23c4.58-0.64 0.5-13.45-4.6-14.43-2.81-0.53-5.12 0.44-5.12 2.17s2.05 3.14 4.56 3.14c2.52 0 3.7 1.41 2.64 3.13-1.07 1.72-3.78 2.42-6.03 1.56-2.26-0.87-4.1-0.22-4.1 1.43 0 1.66-1.32 2.2-2.93 1.2-1.61-0.99-2.93-0.49-2.93 1.12 0 2.48 4.41 2.64 18.51 0.68zm-267.42-3.26c0-1.61-1.31-2.93-2.92-2.93-1.62 0-2.93 1.32-2.93 2.93s1.31 2.93 2.93 2.93c1.61 0 2.92-1.32 2.92-2.93zm210.9-2.89c-2.29-1.42-5.46-1.78-7.04-0.8-1.58 0.97-0.33 2.7 2.79 3.83 7 2.54 9.91 0.46 4.25-3.03zm28.67-3.19c-0.58-1.73-2.3-3.14-3.83-3.14s-3.26 1.41-3.83 3.14c-0.58 1.74 1.14 3.15 3.83 3.15 2.68 0 4.4-1.41 3.83-3.15zm9.34 0.22c0-1.61-1.39-2.92-3.1-2.92-1.7 0-2.28 1.31-1.29 2.92 1 1.61 2.39 2.93 3.1 2.93s1.29-1.32 1.29-2.93zm-35.9-4.95c-2.73-2.72-5.94-3.97-7.13-2.77-1.2 1.2-0.25 3.41 2.12 4.91 7.13 4.51 10.3 3.16 5.01-2.14zm30.05-3.83c0-1.61-2.31-2.91-5.13-2.89-4.38 0.04-4.48 0.46-0.73 2.89 5.53 3.57 5.86 3.57 5.86 0zm17.57-1.29c0-0.71-1.32-2.11-2.93-3.1-1.61-1-2.93-0.42-2.93 1.29 0 1.7 1.32 3.1 2.93 3.1s2.93-0.58 2.93-1.29zm-79.07-4.57c0-1.61-1.32-2.93-2.93-2.93s-2.92 1.32-2.92 2.93 1.31 2.93 2.92 2.93 2.93-1.32 2.93-2.93zm-8.78-2.93c0-1.61-1.32-2.93-2.93-2.93s-2.93 1.32-2.93 2.93 1.32 2.93 2.93 2.93 2.93-1.32 2.93-2.93zm32.21 0c0-1.61-1.24-2.93-2.76-2.93-1.51 0-3.57 1.32-4.56 2.93-1 1.61 0.24 2.93 2.75 2.93s4.57-1.32 4.57-2.93zm-11.71-2.93c0-1.61-1.32-2.92-2.93-2.92s-2.93 1.31-2.93 2.92c0 1.62 1.32 2.93 2.93 2.93s2.93-1.31 2.93-2.93zm71.74 0c-1-1.61-3.05-2.92-4.57-2.92-1.51 0-2.75 1.31-2.75 2.92 0 1.62 2.05 2.93 4.56 2.93 2.52 0 3.76-1.31 2.76-2.93zm-260.75-2.72c0.93-1.5 0.35-3.55-1.29-4.57-1.64-1.01-2.98 0.22-2.98 2.73 0 5.14 1.76 5.9 4.27 1.84zm180.22-0.2c0-1.61-1.32-2.93-2.93-2.93s-2.93 1.32-2.93 2.93 1.32 2.92 2.93 2.92 2.93-1.31 2.93-2.92zm-17.57-6.03c0-1.52-2.02-2.76-4.49-2.76-4.04 0-4.44-4.35-1.61-17.2 0.13-0.6 2.1 0.46 4.38 2.34 2.43 2.03 4.82 2.31 5.82 0.69 0.93-1.5-1.26-3.51-4.87-4.46-3.6-0.94-6.99-0.43-7.53 1.14-0.53 1.57-2.84 2.85-5.12 2.85-5.53 0-5.26 1.91 1.96 13.58 5.51 8.93 11.46 10.91 11.46 3.82zm8.79 3.1c0-1.61-1.32-2.93-2.93-2.93s-2.93 1.32-2.93 2.93 1.32 2.93 2.93 2.93 2.93-1.32 2.93-2.93zm29.28 1.64c0-0.72-1.32-2.11-2.93-3.11-1.61-0.99-2.93-0.41-2.93 1.3 0 1.7 1.32 3.1 2.93 3.1s2.93-0.58 2.93-1.29zm-5.95-10.2c1.94-4.7 2.97-10.96 2.28-13.9-1.08-4.57-1.71-4.29-4.26 1.96-5.71 13.93-7.1 20.5-4.34 20.5 1.53 0 4.37-3.85 6.32-8.56zm158.58-0.96c3.37-5.23 5.37-7.21 4.44-4.39-3.31 10.07 3.99 4.89 10.32-7.32 5.19-10.02 6.34-16.73 5.88-34.41-0.92-35.39-15.47-65.36-50.21-103.48-11.04-12.1-23.69-28.36-28.12-36.13-4.44-7.77-10.81-17.24-14.17-21.04-7.33-8.31-35.5-26.81-40.56-26.65-1.99 0.07 0.35 2.26 5.18 4.88 4.9 2.65 7.17 5.29 5.15 5.97-4.26 1.43 14.33 24.22 44.65 54.76 26.21 26.38 33.96 35.64 43.54 51.98 17.83 30.43 22.53 74.46 10.65 99.73-6.43 13.68-14.68 23.44-14.68 17.36 0-1.71 1.46-4.01 3.24-5.11 5.67-3.5 14.21-25.81 13.95-36.41l-0.26-10.25-2.42 12.22c-2.83 14.36-9.78 28.89-18.51 38.76-4.54 5.13-4.98 6.6-1.59 5.4 2.56-0.92 6.52-0.49 8.79 0.95 6.5 4.11 8.2 3.32 14.73-6.82zm-7.64-0.37c2.76-4.23 5.58-7.68 6.26-7.68 2.12 0-4.7 11.28-8.08 13.37-1.77 1.1-0.95-1.47 1.82-5.69zm-162.56 4.27c0-1.48 0.87-4.95 1.93-7.72 1.37-3.56 0.72-4.59-2.2-3.53-2.27 0.82-3.76 3.08-3.32 5.01 0.53 2.29-1.26 2.86-5.12 1.63-3.26-1.03-5.93-0.57-5.93 1.03 0 2.52 4.62 4.72 12.44 5.93 1.21 0.19 2.2-0.87 2.2-2.35zm55.64-0.24c0-1.61-1.32-2.93-2.93-2.93s-2.93 1.32-2.93 2.93 1.32 2.93 2.93 2.93 2.93-1.32 2.93-2.93zm11.71 0c0-1.61-2.05-2.93-4.56-2.93-2.52 0-3.76 1.32-2.76 2.93s3.05 2.93 4.57 2.93c1.51 0 2.75-1.32 2.75-2.93zm79.29-8.56c4.71-4.71 8.56-10.16 8.56-12.11s-2.73-0.07-6.07 4.17c-5.77 7.33-14.12 9.98-18.31 5.79-1.06-1.06-0.58-3.54 1.05-5.52 2.12-2.54 1.59-4.12-1.81-5.42-3.89-1.5-4.12-2.67-1.18-6.2 2.94-3.56 2.74-4.36-1.14-4.36-5.27 0-6.39-4.5-1.82-7.32 6.26-3.87 2.47-7.09-6.29-5.33-8.92 1.78-9.15 1.57-7.14-6.44 1.83-7.29 1.53-7.83-2.49-4.49-4.01 3.32-4.58 2.49-4.58-6.64 0-12.14-4.39-16.62-6.95-7.08-3.37 12.58-1.67 33 3.73 44.62 12.16 26.18 28.56 32.21 44.44 16.33zm-164.21 2.7c0-1.61-1.4-2.92-3.1-2.92-1.71 0-2.29 1.31-1.29 2.92 0.99 1.62 2.39 2.93 3.1 2.93s1.29-1.31 1.29-2.93zm-319.19-7.01c0-0.53-3.279-0.33-7.287 0.43-4.007 0.77-6.563 2.57-5.679 4 1.388 2.24 12.966-1.71 12.966-4.43zm117.13 5.72c0-0.71-1.32-2.1-2.93-3.1-1.61-0.99-2.93-0.41-2.93 1.29 0 1.71 1.32 3.1 2.93 3.1s2.93-0.58 2.93-1.29zm281.12-1.36c0-1.46 2.64-1.96 5.86-1.12s5.86 0.34 5.86-1.12-4.61-2.78-10.25-2.93c-9.81-0.26-12.51 1.66-8.3 5.87 2.81 2.82 6.83 2.4 6.83-0.7zm-67.35-3.2c0-1.61-1.32-2.93-2.93-2.93s-2.92 1.32-2.92 2.93 1.31 2.93 2.92 2.93 2.93-1.32 2.93-2.93zm-213.77-5.86c0-1.61-1.32-2.93-2.93-2.93s-2.93 1.32-2.93 2.93 1.32 2.93 2.93 2.93 2.93-1.32 2.93-2.93zm224.76-0.7c-0.66-2 0.72-5.57 3.08-7.93 3.11-3.11 3.32-4.61 0.78-5.45-4.51-1.51-5.18-0.72-7.61 8.96-1.35 5.41-0.87 8.05 1.47 8.05 1.92 0 2.95-1.64 2.28-3.63zm-242.33-2.23c0-1.61-1.39-2.93-3.1-2.93s-2.29 1.32-1.29 2.93c0.99 1.61 2.39 2.93 3.1 2.93s1.29-1.32 1.29-2.93zm8.79 0c0-1.61-1.32-2.93-2.93-2.93s-2.93 1.32-2.93 2.93 1.32 2.93 2.93 2.93 2.93-1.32 2.93-2.93zm26.35-0.84c0-2.07-2.63-3.97-5.86-4.21-3.22-0.24-5.85 0.87-5.85 2.48 0 1.6 1.32 2.1 2.93 1.11 1.61-1 2.92-0.42 2.92 1.29s1.32 3.1 2.93 3.1 2.93-1.69 2.93-3.77zm199.13 0.84c0-1.61-1.32-2.93-2.93-2.93s-2.93 1.32-2.93 2.93 1.32 2.93 2.93 2.93 2.93-1.32 2.93-2.93zm55.64 0c0-1.61-1.32-2.93-2.93-2.93s-3.03-2.3-3.16-5.12c-0.14-3.22-0.79-3.73-1.74-1.37-0.83 2.07-0.77 5.69 0.14 8.06 1.86 4.83 7.69 5.87 7.69 1.36zm8.78 0c0-1.61-1.31-2.93-2.92-2.93s-2.93 1.32-2.93 2.93 1.32 2.93 2.93 2.93 2.92-1.32 2.92-2.93zm12.81 0.61c0.78-1.28-1.14-2.51-4.29-2.75-3.14-0.24-4.95 0.81-4.01 2.32 2.07 3.36 6.35 3.58 8.3 0.43zm-86.01-3.05c0-3.81-3.49-6.35-6.32-4.6-3.03 1.88-0.42 7.04 3.56 7.04 1.52 0 2.76-1.1 2.76-2.44zm-204.99-3.41c0-1.61-1.32-2.93-2.93-2.93s-2.93 1.32-2.93 2.93 1.32 2.92 2.93 2.92 2.93-1.31 2.93-2.92zm196.2-3.42c0-1.69-1.89-2.34-4.2-1.45-2.32 0.88-4.77 0.04-5.46-1.89-0.69-1.92-2.32-2.49-3.64-1.27-1.31 1.23 0.15 4.08 3.23 6.33 5.84 4.27 10.07 3.55 10.07-1.72zm-223.48-2.99c-0.94-2.34-1.63-1.64-1.77 1.77-0.13 3.09 0.56 4.82 1.54 3.84 0.97-0.97 1.07-3.5 0.23-5.61zm15.57 3.48c0-1.61-1.4-2.93-3.1-2.93-1.71 0-2.29 1.32-1.3 2.93 1 1.61 2.39 2.93 3.11 2.93 0.71 0 1.29-1.32 1.29-2.93zm228.41-3.1c0-1.52-1.32-2.76-2.93-2.76s-2.93 2.06-2.93 4.57 1.32 3.75 2.93 2.75c1.61-0.99 2.93-3.05 2.93-4.56zm55.64 3.1c0-1.61-1.4-2.93-3.1-2.93-1.71 0-2.29 1.32-1.3 2.93 1 1.61 2.4 2.93 3.11 2.93s1.29-1.32 1.29-2.93zm19.03 0c1-1.61-0.32-2.93-2.93-2.93-2.6 0-3.92 1.32-2.93 2.93 1 1.61 2.32 2.93 2.93 2.93 0.62 0 1.94-1.32 2.93-2.93zm-282.59-2.93c0-1.61-1.31-2.93-2.92-2.93s-2.93 1.32-2.93 2.93 1.32 2.93 2.93 2.93 2.92-1.32 2.92-2.93zm118.6 0c-0.99-1.61-3.12-2.93-4.73-2.93-1.62 0-2.12 1.32-1.12 2.93 0.99 1.61 3.12 2.93 4.73 2.93 1.62 0 2.12-1.32 1.12-2.93zm-127.38-2.93c0-1.61-1.4-2.93-3.1-2.93-1.71 0-2.29 1.32-1.29 2.93 0.99 1.61 2.39 2.93 3.1 2.93s1.29-1.32 1.29-2.93zm134.7 0c0-1.61-1.39-2.93-3.1-2.93-1.7 0-2.28 1.32-1.29 2.93 1 1.61 2.39 2.93 3.1 2.93s1.29-1.32 1.29-2.93zm73.21 0c0-1.61-1.31-2.93-2.92-2.93-1.62 0-2.93 1.32-2.93 2.93s1.31 2.93 2.93 2.93c1.61 0 2.92-1.32 2.92-2.93zm-216.7-2.93c0-1.61-1.31-2.93-2.92-2.93s-2.93 1.32-2.93 2.93 1.32 2.93 2.93 2.93 2.92-1.32 2.92-2.93zm150.94-2.73c-1.07-1.72-3.34-3.12-5.05-3.12-1.94 0-1.72 1.68 0.59 4.46 4.02 4.84 7.61 3.76 4.46-1.34zm56.98 2.73c0-1.61-1.32-2.93-2.93-2.93s-2.93 1.32-2.93 2.93 1.32 2.93 2.93 2.93 2.93-1.32 2.93-2.93zm22.18-9.36c-2.54-3.62-4.61-5.08-4.61-3.24s-0.89 5.65-1.97 8.48c-1.52 3.96-0.85 4.71 2.92 3.26 2.9-1.11 5-0.42 5.14 1.69 0.18 2.78 0.55 2.78 1.68-0.02 0.8-1.97-0.62-6.55-3.16-10.17zm45.17 9.36c0-1.61-1.39-2.93-3.1-2.93s-2.29 1.32-1.29 2.93c0.99 1.61 2.39 2.93 3.1 2.93s1.29-1.32 1.29-2.93zm21.72 1.15c2.55-0.97 4.64-4.19 4.64-7.14 0-5.99-5.16-10.41-8.25-7.08-1.1 1.19-0.36 2.75 1.66 3.47 6.16 2.2 4.06 7.2-2.2 5.21-5.65-1.79-7.93 1.34-3.9 5.37 2.37 2.38 2.32 2.37 8.05 0.17zm-162.28-2.25c0-0.61-1.98-2.75-4.39-4.75-3.6-2.99-4.4-2.79-4.4 1.1 0 2.61 1.98 4.75 4.4 4.75 2.41 0 4.39-0.49 4.39-1.1zm62.96-1.83c0.99-1.61 0.41-2.92-1.29-2.92-1.71 0-3.1 1.31-3.1 2.92 0 1.62 0.58 2.93 1.29 2.93s2.1-1.31 3.1-2.93zm21.96-2.92c0-1.61-1.32-2.93-2.93-2.93s-2.92 1.32-2.92 2.93 1.31 2.92 2.92 2.92 2.93-1.31 2.93-2.92zm-219.63-5.27c0-2.9 1.41-6.68 3.13-8.4 2.21-2.22 1.79-3.64-1.46-4.89-3.17-1.21-4.59-0.05-4.59 3.77 0 3.04-0.8 7.61-1.78 10.15-0.98 2.55-0.32 4.64 1.46 4.64 1.79 0 3.24-2.38 3.24-5.27zm117.68-1.23c-2.11-2.1-3.47-2.27-3.47-0.43 0 3.9 3.46 7.37 5.42 5.41 0.83-0.83-0.05-3.07-1.95-4.98zm40.4 2.03c-2.04-2.45-4.31-3.86-5.05-3.12-2.03 2.03 2.1 7.59 5.64 7.59 1.94 0 1.72-1.68-0.59-4.47zm52.77-0.24c0-2.98-1.61-4.09-4.4-3.02-2.41 0.93-4.39 0.33-4.39-1.32 0-1.66-1.49-2.09-3.32-0.96-2.15 1.33-0.85 3.43 3.66 5.93 8.84 4.9 8.45 4.92 8.45-0.63zm64.96-1.79c-2.1-2.1-3.47-2.27-3.47-0.43 0 3.9 3.47 7.37 5.42 5.41 0.83-0.83-0.05-3.07-1.95-4.98zm9.36-3.88c-2.58-3.93-6-6.33-7.6-5.34-1.77 1.09-1.85 2.53-0.2 3.64 1.5 1 3.6 4.22 4.68 7.14s3.28 4.5 4.88 3.5c1.81-1.11 1.13-4.52-1.76-8.94zm-293.95 1.59c0-3.22-0.51-5.86-1.12-5.86-0.62 0-1.81 2.64-2.66 5.86-0.84 3.22-0.33 5.86 1.13 5.86s2.65-2.64 2.65-5.86zm155.74-0.63c-2.1-2.1-3.47-2.28-3.47-0.44 0 3.91 3.47 7.37 5.42 5.41 0.83-0.83-0.04-3.07-1.95-4.97zm-18.11 0.63c0-1.61-1.32-2.93-2.93-2.93s-2.92 1.32-2.92 2.93 1.31 2.93 2.92 2.93 2.93-1.32 2.93-2.93zm93.71 0c0-1.61-1.4-2.93-3.1-2.93-1.71 0-2.29 1.32-1.29 2.93 0.99 1.61 2.39 2.93 3.1 2.93s1.29-1.32 1.29-2.93zm-246.91-6.4c-0.93-2.34-1.63-1.65-1.77 1.76-0.13 3.09 0.57 4.82 1.54 3.85 0.97-0.98 1.08-3.5 0.23-5.61zm39 3.47c0-1.61-1.32-2.93-2.93-2.93s-2.93 1.32-2.93 2.93 1.32 2.93 2.93 2.93 2.93-1.32 2.93-2.93zm120.39-6.7c-2.39-2.39-3.26-2.06-3.26 1.24 0 5.82 3.94 9.76 5.39 5.39 0.62-1.85-0.34-4.83-2.13-6.63zm30.42 6.7c-1-1.61-3.13-2.93-4.74-2.93s-2.12 1.32-1.12 2.93 3.13 2.93 4.74 2.93 2.11-1.32 1.12-2.93zm-46.86-2.93c1.01-1.63-1.18-2.9-4.95-2.88-5.44 0.04-5.9 0.6-2.37 2.88 5.45 3.53 5.15 3.53 7.32 0zm36.61 0c0-1.61-1.32-2.92-2.93-2.92s-2.93 1.31-2.93 2.92 1.32 2.93 2.93 2.93 2.93-1.32 2.93-2.93zm143.49-0.44c0-1.16-2.64-1.92-5.86-1.68s-5.86 1.4-5.86 2.57c0 1.16 2.64 1.92 5.86 1.68 3.22-0.25 5.86-1.4 5.86-2.57zm-199.13-0.85c0-0.71-1.32-2.1-2.93-3.1-1.61-0.99-2.93-0.41-2.93 1.29 0 1.71 1.32 3.1 2.93 3.1s2.93-0.58 2.93-1.29zm45.26-1.43c0.93-1.5 0.35-3.56-1.29-4.57-1.63-1.01-2.97 0.22-2.97 2.73 0 5.14 1.75 5.9 4.26 1.84zm25.56-3.77c-2.1-2.1-3.47-2.27-3.47-0.44 0 3.91 3.46 7.38 5.42 5.42 0.83-0.83-0.05-3.07-1.95-4.98zm58.03 3.57c0-1.61-1.98-2.93-4.4-2.93-2.41 0-4.39 1.32-4.39 2.93s1.98 2.92 4.39 2.92c2.42 0 4.4-1.31 4.4-2.92zm-266.48-2.93c0-1.61-2.06-2.93-4.57-2.93s-3.75 1.32-2.75 2.93c0.99 1.61 3.05 2.93 4.56 2.93 1.52 0 2.76-1.32 2.76-2.93zm96.63 0c0-1.61-1.32-2.93-2.93-2.93s-2.92 1.32-2.92 2.93 1.31 2.93 2.92 2.93 2.93-1.32 2.93-2.93zm17.57 1.63c0-0.71-1.32-2.1-2.93-3.1-1.61-0.99-2.92-0.41-2.92 1.29 0 1.71 1.31 3.11 2.92 3.11s2.93-0.59 2.93-1.3zm140.56-1.63c0-1.61-1.31-2.93-2.92-2.93-1.62 0-2.93 1.32-2.93 2.93s1.31 2.93 2.93 2.93c1.61 0 2.92-1.32 2.92-2.93zm-208.47-4.74c-2.61-2.61-6.32-3.76-8.26-2.56-4.1 2.53 1.48 7.18 8.72 7.25 3.57 0.04 3.5-0.74-0.46-4.69zm132.29-2.55c4.85-3 0.13-7.78-5.82-5.89-3.77 1.2-5.88-0.08-7.08-4.27-0.93-3.29-2.44-8.61-3.35-11.82-1.26-4.43-0.56-5.41 2.93-4.08 2.57 0.99 4.58 0.24 4.58-1.71 0-2.47-5.26-3.01-18.3-1.89-10.07 0.87-20.61 1.63-23.43 1.69-6.72 0.15-6.48 6.48 0.79 20.73 5.52 10.81 11.66 15.38 11.66 8.67 0-1.61-1.11-2.93-2.46-2.93-3.02 0-9.26-13.2-9.26-19.6 0-3.64 1.57-3.12 7.05 2.34 10.32 10.28 15.75 14.33 19.19 14.33 5.29 0 3.29 5.85-2.08 6.07-4.34 0.17-4.22 0.55 0.73 2.5 5.52 2.16 18.02 0.08 24.85-4.14zm22.01 4.36c-1-1.61-3.05-2.93-4.57-2.93-1.51 0-2.75 1.32-2.75 2.93s2.05 2.93 4.56 2.93 3.75-1.32 2.76-2.93zm121.53-0.44c0-1.17-2.64-1.93-5.86-1.68-3.22 0.24-5.86 1.39-5.86 2.56s2.64 1.93 5.86 1.68c3.22-0.24 5.86-1.39 5.86-2.56zm-103.96-2.49c-1-1.61-3.13-2.93-4.74-2.93s-2.11 1.32-1.12 2.93c1 1.61 3.13 2.93 4.74 2.93s2.11-1.32 1.12-2.93zm-218.16-1.15c0-0.63-1.98-1.91-4.4-2.84-2.41-0.92-4.39-0.41-4.39 1.15s1.98 2.84 4.39 2.84c2.42 0 4.4-0.52 4.4-1.15zm32.21-1.78c0-1.61-1.32-2.93-2.93-2.93s-2.93 1.32-2.93 2.93 1.32 2.93 2.93 2.93 2.93-1.32 2.93-2.93zm64.42 0c0-1.61-1.32-2.93-2.93-2.93s-2.92 1.32-2.92 2.93 1.31 2.93 2.92 2.93 2.93-1.32 2.93-2.93zm111.28 0.18c0-1.52-1.32-3.57-2.93-4.57s-2.93 0.24-2.93 2.76c0 2.51 1.32 4.56 2.93 4.56s2.93-1.24 2.93-2.75zm49.78-0.18c0-1.61-1.39-2.93-3.1-2.93s-2.29 1.32-1.29 2.93c0.99 1.61 2.39 2.93 3.1 2.93s1.29-1.32 1.29-2.93zm175.7-1.46c0-2.42-1.27-4.39-2.83-4.39s-2.08 1.97-1.15 4.39c0.92 2.41 2.2 4.39 2.83 4.39 0.64 0 1.15-1.98 1.15-4.39zm-415.82-1.47c0-1.61-1.4-2.92-3.1-2.92-1.71 0-2.29 1.31-1.3 2.92 1 1.61 2.39 2.93 3.1 2.93 0.72 0 1.3-1.32 1.3-2.93zm67.35 0c0-1.61-0.58-2.92-1.29-2.92s-2.11 1.31-3.1 2.92c-1 1.61-0.42 2.93 1.29 2.93 1.7 0 3.1-1.32 3.1-2.93zm250.37 0c1.01-1.63-1.18-2.9-4.95-2.88-5.44 0.04-5.9 0.6-2.37 2.88 5.45 3.53 5.15 3.53 7.32 0zm-221.09-2.75c0-3.46-5.71-7.15-7.81-5.05-2.09 2.09 1.6 7.8 5.06 7.8 1.51 0 2.75-1.24 2.75-2.75zm109.82-0.17c-1-1.61-3.05-2.93-4.57-2.93s-2.76 1.32-2.76 2.93 2.06 2.92 4.57 2.92 3.75-1.31 2.76-2.92zm-229.88-2.93c0-1.61-1.32-2.93-2.93-2.93s-2.93 1.32-2.93 2.93 1.32 2.93 2.93 2.93 2.93-1.32 2.93-2.93zm99.56 0c0-1.61-1.31-2.93-2.92-2.93-1.62 0-2.93 1.32-2.93 2.93s1.31 2.93 2.93 2.93c1.61 0 2.92-1.32 2.92-2.93zm162.83-5.07c-2.97-2.97-5.43 1.51-2.99 5.46 1.85 2.99 2.54 2.99 3.53 0.01 0.68-2.03 0.44-4.49-0.54-5.47zm-183.32 2.14c0-1.61-1.4-2.93-3.11-2.93-1.7 0-2.28 1.32-1.29 2.93 1 1.61 2.39 2.93 3.1 2.93s1.3-1.32 1.3-2.93zm11.71 1.64c0-0.71-1.32-2.11-2.93-3.11-1.61-0.99-2.93-0.41-2.93 1.3 0 1.7 1.32 3.1 2.93 3.1s2.93-0.58 2.93-1.29zm181.56-6.21c0-2.32-1.32-4.22-2.93-4.22s-2.93 2.72-2.93 6.03c0 3.32 1.32 5.22 2.93 4.22 1.61-0.99 2.93-3.71 2.93-6.03zm58.87 0.77c-3.76-3.76-7.57-0.85-4.79 3.65 1.08 1.75 3.3 2.34 4.94 1.33 2-1.24 1.95-2.87-0.15-4.98zm-313.64 0.87c0-1.61-1.32-2.93-2.93-2.93s-2.93 1.32-2.93 2.93 1.32 2.93 2.93 2.93 2.93-1.32 2.93-2.93zm23.43 0c0-1.61-1.4-2.93-3.1-2.93-1.71 0-2.29 1.32-1.3 2.93 1 1.61 2.39 2.93 3.11 2.93 0.71 0 1.29-1.32 1.29-2.93zm28.15-2.38c-0.94-1.52-4.69-3.52-8.34-4.44l-6.64-1.66 7.01 5.78c6.85 5.65 11.38 5.83 7.97 0.32zm251.5 2.38c-0.99-1.61-3.05-2.93-4.56-2.93-1.52 0-2.76 1.32-2.76 2.93s2.06 2.93 4.57 2.93 3.75-1.32 2.75-2.93zm21.97 1.64c0-0.71-1.32-2.11-2.93-3.1-1.61-1-2.93-0.42-2.93 1.29 0 1.7 1.32 3.1 2.93 3.1s2.93-0.58 2.93-1.29zm-341.16-5.85c-14.26-6.25-21.96-8.08-21.96-5.22 0 3.81 10.89 8.17 21.61 8.65l9.14 0.41-8.79-3.84zm253.31 2.92c0-0.71-1.32-2.11-2.93-3.1-1.61-1-2.93-0.42-2.93 1.29s1.32 3.1 2.93 3.1 2.93-0.58 2.93-1.29zm-228.42-4.57c0-1.61-0.58-2.92-1.29-2.92s-2.1 1.31-3.1 2.92c-0.99 1.61-0.41 2.93 1.29 2.93 1.71 0 3.1-1.32 3.1-2.93zm322.37-12.63c-2.28-2.29-3.17-1.09-3.17 4.24 0 9.65 4.1 13.78 5.37 5.41 0.54-3.56-0.45-7.91-2.2-9.65zm-329.69 9.71c1-1.61 0.42-2.93-1.29-2.93-1.7 0-3.1 1.32-3.1 2.93s0.58 2.92 1.29 2.92 2.11-1.31 3.1-2.92zm241.59 1.63c0-0.71-1.31-2.1-2.92-3.1-1.62-0.99-2.93-0.41-2.93 1.29 0 1.71 1.31 3.1 2.93 3.1 1.61 0 2.92-0.58 2.92-1.29zm64.43-1.46c0-3.46-5.71-7.15-7.81-5.05-2.1 2.09 1.6 7.8 5.05 7.8 1.52 0 2.76-1.24 2.76-2.75zm11.09-6.6c0.26-9.34 0.26-9.34-3.48-2.19-3.75 7.17-3.41 11.54 0.9 11.54 1.27 0 2.43-4.2 2.58-9.35zm32.37-0.6c5.77-11.84 2.89-11.7-4.94 0.24-4.05 6.18-5.22 9.85-2.89 9.09 2.15-0.7 5.67-4.9 7.83-9.33zm-356.8 4.1c0-1.61-1.31-2.93-2.93-2.93-1.61 0-2.92 1.32-2.92 2.93s1.31 2.93 2.92 2.93c1.62 0 2.93-1.32 2.93-2.93zm240.13 0.17c0-1.52-1.32-3.57-2.93-4.57-1.61-0.99-2.93 0.25-2.93 2.76s1.32 4.57 2.93 4.57 2.93-1.24 2.93-2.76zm149.3-7.12c0.02-1.41-1.92-0.93-4.32 1.06-2.39 1.99-3.55 4.93-2.56 6.53 1.82 2.94 6.79-2.55 6.88-7.59zm30.34 5.36c-0.96-2.49-2.36-3.89-3.13-3.13-0.77 0.77-0.53 2.8 0.53 4.52 2.89 4.67 4.58 3.77 2.6-1.39zm-437.34-2.81c0-2.41-1.97-4.39-4.39-4.39-4.57 0-5.81 3.47-2.44 6.84 3.37 3.36 6.83 2.13 6.83-2.45zm8.79 1.47c0-1.61-0.58-2.93-1.29-2.93s-2.11 1.32-3.1 2.93c-1 1.61-0.42 2.93 1.29 2.93 1.7 0 3.1-1.32 3.1-2.93zm25.06-19.39c-0.96-3.83-3.18-6.97-4.93-6.97-1.76 0-2.49 1.82-1.64 4.04s0.07 5.51-1.74 7.32c-1.8 1.81-2.2 3.29-0.87 3.29 1.32 0 0.86 1.85-1.02 4.13-2.35 2.82-2.46 4.73-0.36 6.03 1.69 1.04 3.07-0.08 3.07-2.5 0-2.41 1.42-5.27 3.16-6.35 1.89-1.17 2.94 0.24 2.6 3.49-0.99 9.31 0.9 11.77 2.23 2.89 0.69-4.62 0.46-11.54-0.5-15.37zm-45.56 16.66c0-3.15-11.39-7.35-13.69-5.05-0.85 0.84-0.67 2.94 0.39 4.66 2.37 3.84 13.3 4.16 13.3 0.39zm79.06-0.2c0-1.61-1.31-2.93-2.92-2.93s-2.93 1.32-2.93 2.93 1.32 2.93 2.93 2.93 2.92-1.32 2.92-2.93zm195.05-5.06c-2.98-2.98-5.44 1.5-2.99 5.45 1.84 2.99 2.53 2.99 3.52 0.02 0.68-2.04 0.44-4.5-0.53-5.47zm70.28 0c-2.98-2.98-5.44 1.5-2.99 5.45 1.84 2.99 2.53 2.99 3.52 0.02 0.68-2.04 0.44-4.5-0.53-5.47zm-315.11 0.5c0-2.52-1.34-3.74-2.97-2.73-1.64 1.01-2.22 3.07-1.29 4.56 2.51 4.07 4.26 3.31 4.26-1.83zm128.85 0c0-2.52-1.34-3.74-2.98-2.73-1.63 1.01-2.21 3.07-1.29 4.56 2.51 4.07 4.27 3.31 4.27-1.83zm222.35-9.35c0.11-2.01-0.96-3.66-2.38-3.66-3.03 0-6.15 13.72-3.68 16.19 1.79 1.78 5.71-6.34 6.06-12.53zm-313.93 5.13c0.24-3.23-0.8-5.86-2.31-5.86s-2.75 2.63-2.75 5.86c0 3.22 1.04 5.85 2.31 5.85s2.5-2.63 2.75-5.85zm82.8 4.56c0-0.71-1.32-2.1-2.93-3.1s-2.93-0.41-2.93 1.29c0 1.71 1.32 3.1 2.93 3.1s2.93-0.58 2.93-1.29zm-134.71-4.25c0-1.44-1.98-3.37-4.39-4.3-2.68-1.03-4.39-0.01-4.39 2.61 0 2.37 1.97 4.3 4.39 4.3 2.41 0 4.39-1.17 4.39-2.61zm61.5-0.31c0-1.62-1.4-2.93-3.1-2.93-1.71 0-2.29 1.31-1.3 2.93 1 1.61 2.39 2.92 3.11 2.92 0.71 0 1.29-1.31 1.29-2.92zm61.49 0c0-1.62-0.58-2.93-1.29-2.93s-2.11 1.31-3.1 2.93c-1 1.61-0.41 2.92 1.29 2.92 1.71 0 3.1-1.31 3.1-2.92zm128.85 1.63c0-0.71-1.32-2.1-2.93-3.1-1.61-0.99-2.93-0.41-2.93 1.29 0 1.71 1.32 3.1 2.93 3.1s2.93-0.58 2.93-1.29zm154.29-12.62c-0.73-2.81-1.34-0.51-1.34 5.13s0.61 7.94 1.34 5.12c0.74-2.82 0.74-7.43 0-10.25zm-426.86 5.86c-0.14-3.09-0.82-3.66-1.71-1.45-2.6 6.45-6.94 0.65-5.07-6.78 1.03-4.09 0.51-7.14-1.21-7.14-4 0-5.66 5.59-4.09 13.8 1.54 8.05 12.44 9.47 12.08 1.57zm9.02 2.2c0-1.61-1.32-2.93-2.93-2.93s-2.93 1.32-2.93 2.93 1.32 2.93 2.93 2.93 2.93-1.32 2.93-2.93zm199.13 0c0-1.61-1.32-2.93-2.93-2.93s-2.93 1.32-2.93 2.93 1.32 2.93 2.93 2.93 2.93-1.32 2.93-2.93zm149.34 1.63c0-0.71-1.32-2.1-2.93-3.1-1.61-0.99-2.92-0.41-2.92 1.29 0 1.71 1.31 3.11 2.92 3.11s2.93-0.59 2.93-1.3zm-318.18-8.09c1.58-6.06 0.35-10.67-2.11-7.94-2.98 3.31-4.8 14.4-2.37 14.4 1.54 0 3.55-2.91 4.48-6.46zm51.7 3.7c0-1.51-1.32-3.57-2.93-4.56-1.61-1-2.93 0.24-2.93 2.75s1.32 4.57 2.93 4.57 2.93-1.24 2.93-2.76zm41-1.64c-2.01-2.41-4.86-4.39-6.33-4.39-3.36 0 3.93 8.52 7.42 8.68 1.4 0.06 0.91-1.87-1.09-4.29zm67.99-2.52c18.66-6.53 30.64-13.92 45.48-28.04 8.19-7.79 8.24-11.7 0.31-25.14-4.65-7.88-7.75-10.26-11.93-9.17-5.94 1.56-13.01-4.03-21.5-16.97-3.31-5.06-6.05-6.67-8.24-4.85-1.81 1.5-11.41 3.38-21.33 4.17-15.94 1.27-18.2 0.79-19.49-4.14-0.8-3.07-2.75-5.58-4.33-5.58-4.36 0-12.97 14.58-11.25 19.06 0.83 2.17-0.39 5.52-2.71 7.44-2.32 1.93-4.26 6.96-4.31 11.2-0.08 6.94-0.4 7.16-3.25 2.24-1.75-3-5.66-7.95-8.7-10.99s-5.53-7.78-5.53-10.54c0-4.4-0.52-4.49-4.22-0.73-3.64 3.69-3.68 7.14-0.28 24.78 3.14 16.31 12.26 45.22 14.34 45.44 0.23 0.02 5.68 1.94 12.13 4.26 16.9 6.09 32.43 5.4 54.81-2.44zm-50.42-13.83c0-1.74 1.65-2.57 3.66-1.84s5.97-0.68 8.78-3.14c5.72-4.98 7.14-0.88 1.61 4.64-4.37 4.38-14.05 4.62-14.05 0.34zm2.09-13.54c-1.86-9.64-1.02-10.98 5.31-8.55 2.83 1.09 4.35 4.37 3.79 8.19-1.4 9.49-7.3 9.73-9.1 0.36zm65.48 30.55c-0.36-3.5-4.38-2.82-5.64 0.96-0.64 1.93 0.41 2.98 2.35 2.34 1.93-0.65 3.41-2.13 3.29-3.3zm57.81-3.6c-1.84-4.03-3.73-6.94-4.21-6.46-1.79 1.78 2.6 13.8 5.03 13.8 1.39 0 1.02-3.3-0.82-7.34zm-245.44 1.48c0-1.61-1.32-2.93-2.93-2.93s-2.93 1.32-2.93 2.93 1.32 2.93 2.93 2.93 2.93-1.32 2.93-2.93zm52.71 0c0-1.61-1.32-2.93-2.93-2.93s-2.93 1.32-2.93 2.93 1.32 2.93 2.93 2.93 2.93-1.32 2.93-2.93zm-74.14-6.41c-0.94-2.33-1.63-1.64-1.77 1.77-0.13 3.09 0.57 4.82 1.54 3.85 0.97-0.98 1.08-3.5 0.23-5.62zm12.64 5.12c0-3.09-5.62-4.39-7.29-1.69-1.01 1.64 0.21 2.98 2.73 2.98 2.51 0 4.56-0.58 4.56-1.29zm206.45-1.64c1-1.61 0.41-2.93-1.29-2.93-1.71 0-3.1 1.32-3.1 2.93s0.58 2.93 1.29 2.93 2.1-1.32 3.1-2.93zm117.13 0c-0.99-1.61-3.05-2.93-4.56-2.93-1.52 0-2.76 1.32-2.76 2.93s2.06 2.93 4.57 2.93 3.75-1.32 2.75-2.93zm-341.15-2.93c0-1.61-1.32-2.92-2.93-2.92s-2.93 1.31-2.93 2.92 1.32 2.93 2.93 2.93 2.93-1.32 2.93-2.93zm61.5 0c0-1.61-1.32-2.92-2.93-2.92s-2.93 1.31-2.93 2.92 1.32 2.93 2.93 2.93 2.93-1.32 2.93-2.93zm202.05 0c0-1.61-1.31-2.92-2.93-2.92-1.61 0-2.92 1.31-2.92 2.92s1.31 2.93 2.92 2.93c1.62 0 2.93-1.32 2.93-2.93zm14.65 0c0-1.61-1.4-2.92-3.11-2.92-1.7 0-2.28 1.31-1.29 2.92 1 1.61 2.39 2.93 3.1 2.93s1.3-1.32 1.3-2.93zm108.34 1.64c0-0.71-1.31-2.11-2.92-3.1-1.61-1-2.93-0.41-2.93 1.29 0 1.71 1.32 3.1 2.93 3.1s2.92-0.58 2.92-1.29zm-357.26-4.56c0-1.62-2.05-2.93-4.56-2.93s-3.75 1.31-2.76 2.93c1 1.61 3.05 2.92 4.57 2.92 1.51 0 2.75-1.31 2.75-2.92zm206.45 0c1-1.62-0.24-2.93-2.75-2.93s-4.57 1.31-4.57 2.93c0 1.61 1.24 2.92 2.76 2.92 1.51 0 3.57-1.31 4.56-2.92zm118.6 0.03c0-3.03-14.41-5.7-16.09-2.98-1.96 3.17 0.14 4.36 8.53 4.83 4.16 0.23 7.56-0.6 7.56-1.85zm-336.76-2.96c0-1.61-1.32-2.93-2.93-2.93s-2.93 1.32-2.93 2.93 1.32 2.93 2.93 2.93 2.93-1.32 2.93-2.93zm49.78 0c0-1.61-1.39-2.93-3.1-2.93-1.7 0-2.28 1.32-1.29 2.93 1 1.61 2.39 2.93 3.1 2.93s1.29-1.32 1.29-2.93zm-58.56-2.93c0-1.61-1.32-2.93-2.93-2.93s-2.93 1.32-2.93 2.93 1.32 2.93 2.93 2.93 2.93-1.32 2.93-2.93zm49.78 0c0-1.61-1.32-2.93-2.93-2.93s-2.93 1.32-2.93 2.93 1.32 2.93 2.93 2.93 2.93-1.32 2.93-2.93zm185.79-3.18c-0.94-1.53-2.96-2-4.48-1.06-1.53 0.94-2.01 2.96-1.06 4.49 0.94 1.52 2.96 2 4.48 1.06 1.53-0.94 2.01-2.96 1.06-4.49zm13.34 3.18c0-1.61-1.32-2.93-2.93-2.93s-2.93 1.32-2.93 2.93 1.32 2.93 2.93 2.93 2.93-1.32 2.93-2.93zm-264.23-3.48c-1.81-5.43-8.11-6.33-8.11-1.16 0 2.55 2.09 4.64 4.64 4.64s4.11-1.57 3.47-3.48zm-11.13-1.65c-0.17-3.97-8.595-13.52-10.366-11.75-2.314 2.32 4.05 13.95 7.636 13.95 1.55 0 2.78-0.99 2.73-2.2zm37.1-2.19c-0.93-2.42-0.41-4.39 1.15-4.39s2.84-3.96 2.84-8.79c0-8.33-5.49-12.88-6.19-5.12-0.18 2.01-0.82 7.94-1.42 13.17-0.65 5.62 0.21 9.52 2.1 9.52 1.76 0 2.45-1.98 1.52-4.39zm232.4-1.47c0-1.61-1.32-2.92-2.93-2.92s-2.93 1.31-2.93 2.92 1.32 2.93 2.93 2.93 2.93-1.32 2.93-2.93zm87.85-4.97c0-5.89-0.85-7.06-3.32-4.59-1.82 1.82-2.52 5.38-1.55 7.9 2.68 6.99 4.87 5.5 4.87-3.31zm-345.55-4.3c0-3.49-0.37-5.8-0.82-5.12-0.46 0.67-2.6 3.52-4.76 6.34-3.35 4.39-3.23 5.13 0.83 5.13 2.92 0 4.75-2.45 4.75-6.35zm263.56 3.42c0-1.61-1.4-2.93-3.1-2.93-1.71 0-2.29 1.32-1.3 2.93 1 1.61 2.39 2.93 3.11 2.93 0.71 0 1.29-1.32 1.29-2.93zm-273.24-16.79c-0.74-2.84-1.4-1.22-1.46 3.61s0.55 7.16 1.35 5.18 0.85-5.94 0.11-8.79zm30.18 9.64c0-0.71-1.32-2.11-2.93-3.1-1.61-1-2.92-0.42-2.92 1.29 0 1.7 1.31 3.1 2.92 3.1s2.93-0.58 2.93-1.29zm395.33 0.28c0-0.56-2.82-3.52-6.27-6.59-6.25-5.56-6.26-5.55-2.22 1.01 3.44 5.6 8.49 8.92 8.49 5.58zm-434.86-4.85c-0.996-1.61-3.709-2.93-6.03-2.93s-4.219 1.32-4.219 2.93 2.713 2.93 6.029 2.93 5.215-1.32 4.22-2.93zm30.75 0c0-1.61-1.32-2.93-2.93-2.93s-2.93 1.32-2.93 2.93 1.32 2.93 2.93 2.93 2.93-1.32 2.93-2.93zm-8.79-2.93c0-1.61-1.32-2.92-2.93-2.92s-2.92 1.31-2.92 2.92c0 1.62 1.31 2.93 2.92 2.93s2.93-1.31 2.93-2.93zm336.76-1.56c0-0.86-2.04-4.68-4.53-8.49-4.34-6.62-4.44-14.77-0.31-25.82 4.81-12.87 4.8-14.33-0.08-13.39-9.46 1.82-11.48 21.96-4.15 41.21 2.6 6.82 9.07 11.45 9.07 6.49zm-333.83-7.22c0-1.61-1.98-2.93-4.39-2.93-2.42 0-4.39 1.32-4.39 2.93s1.97 2.93 4.39 2.93c2.41 0 4.39-1.32 4.39-2.93zm358.99-5.1c-2.03-2.03-7.59 2.09-7.59 5.63 0 1.94 1.68 1.72 4.47-0.59 2.45-2.04 3.86-4.31 3.12-5.04zm-370.7 2.17c0-1.61-1.32-2.93-2.93-2.93s-2.93 1.32-2.93 2.93 1.32 2.93 2.93 2.93 2.93-1.32 2.93-2.93zm-8.79-2.56c0-1.41-4.116-3.39-9.149-4.39-12.882-2.58-17.204-2.29-17.204 1.15 0 1.64 3.089 2.43 6.864 1.74 3.775-0.68 8.717-0.07 10.981 1.37 5.269 3.33 8.508 3.38 8.508 0.13zm32.21-0.19c0-1.52-1.31-3.57-2.92-4.57-1.61-0.99-2.93 0.25-2.93 2.76s1.32 4.56 2.93 4.56 2.92-1.24 2.92-2.75zm-16.22-7.81c-9.86-5.11-10.13-5.1-10.13 0.63 0 2.93 1.62 4.08 4.3 3.05 2.36-0.91 5.09-0.37 6.06 1.2s3.08 2.03 4.7 1.03-0.6-3.66-4.93-5.91zm-13.06-4.25c0-1.52-1.32-2.76-2.93-2.76-1.608 0-2.926 2.06-2.926 4.57s1.318 3.75 2.926 2.75c1.61-0.99 2.93-3.05 2.93-4.56zm154.62 2.51c1.93-1.93 3.51-6.03 3.51-9.11 0-6.16 17.15-34.23 20.92-34.23 1.3 0 1.61 3.77 0.69 8.37-1.92 9.62 1.59 11.85 21.67 13.79 11.25 1.08 12.82 0.44 15.37-6.26 3.11-8.18 8.7-7.1 8.7 1.68 0 7.46 14.42 24.13 14.55 16.83 0.12-6.22 0.54-6.24 13.67-0.75 9.5 3.97 10.3 3.94 8.66-0.33-1.29-3.35-0.54-4.21 2.62-3 6.29 2.42 5.51-0.38-2.89-10.36-4.03-4.79-7.32-10.67-7.32-13.07 0-3.17-1.77-3.8-6.45-2.32-6.08 1.93-6.17 1.76-1.47-2.94 7.56-7.55 6.02-10.46-4.53-8.58-8.88 1.58-8.64 1.24 3.66-5.2 8.55-4.47 14.93-10.49 18.16-17.14 6.85-14.07 6.65-14.64-4.98-14.64-12.53 0-13.69-4.15-1.4-5.01 4.86-0.34 10.98-1.82 13.61-3.29 3.87-2.17 2.76-3.34-5.92-6.2-5.87-1.94-10.68-4.74-10.68-6.23 0-3.48 1.1-3.4 10.12 0.7 10.06 4.59 12.35 1.4 4.81-6.69-3.38-3.63-6.15-7.45-6.15-8.49 0-3.59 8.54-1.87 10.03 2.02 0.83 2.15 2.83 3.9 4.45 3.9 1.95 0 1.99-2.53 0.09-7.51-4.71-12.38-2.99-12.29 3.47 0.19 7.4 14.3 16.78 24.89 22.04 24.89 2.15 0 6.16 2.64 8.92 5.86s7.22 5.86 9.91 5.86c5.23 0 9.54-7.57 6.82-11.98-2.75-4.44-7.16-2.99-7.16 2.36 0 4.5-0.46 4.55-4.47 0.55-10.72-10.72-0.54-73.35 11.23-69.12 4.05 1.46 13.74-2.96 13.74-6.25 0-1.24-5.82-5.07-12.93-8.53-7.74-3.76-13.75-8.99-14.98-13.03-5.65-18.6-24.94-26.31-31.24-12.49-1.87 4.09-5.04 6.8-7.05 6.03-2.26-0.87-6.18 4.68-10.25 14.49-8.44 20.37-10.63 18.79-2.74-1.97 7.68-20.21 7.52-20.68-2.81-8.41-4.74 5.64-8.66 8.57-8.7 6.53-0.05-2.46-2.79-3.2-8.13-2.18-4.43 0.85-6.41 0.76-4.4-0.19 4.35-2.04 4.96-12.95 0.74-12.95-1.61 0-2.93 1.46-2.93 3.24 0 1.79-1.94 2.5-4.31 1.59-2.44-0.93-6.1 0.9-8.42 4.2-4.04 5.78-4.12 5.77-6.19-0.85l-2.1-6.71-2.07 7.32c-1.76 6.2-2.37 6.53-4.04 2.19-1.09-2.81-1.16-7.43-0.17-10.24 1.47-4.19 1.08-4.46-2.14-1.47-6.02 5.59-9.21 4.36-5.7-2.19 2.75-5.14 2.31-5.73-3.56-4.81-5.18 0.81-6.46 2.63-5.69 8.05 0.55 3.85 3.07 9.32 5.6 12.15 2.52 2.82 3.65 6.08 2.49 7.23-1.15 1.15-3.34 0.16-4.86-2.21-2.43-3.78-3.12-3.77-5.65 0.08-2.21 3.36-2.9 2.15-2.93-5.12-0.06-12.57-3.19-12.01-11.9 2.12-3.95 6.4-8.21 11.67-9.48 11.71-2.91 0.1 2.55-10.29 11.89-22.62 10.29-13.57 3.39-11.78-9.48 2.46-12.5 13.84-17.37 13.83-5.72-0.02 9.41-11.18 7.97-14.34-2.71-5.94-5.78 4.55-7.31 4.93-5.99 1.51 2.17-5.65 1.02-5.71-9.16-0.43-4.42 2.3-10.6 7.9-13.74 12.45-5.53 8.04-5.64 8.07-3.67 0.95 1.11-4.02 4.51-10.04 7.54-13.36 6.56-7.18 6.98-10.06 1.49-10.06-2.22 0-8.91 7.08-14.87 15.73-10.16 14.74-10.89 17.31-11.72 40.99-0.8 23.09-0.4 25.27 4.62 25.27 3.55 0 5.5-2.08 5.5-5.85 0-3.23 1.32-5.86 2.93-5.86s3.17-6.26 3.46-13.91l0.53-13.91 1.26 14.64 1.25 14.64 4.01-10.25 4-10.25-1.3 15.38c-0.71 8.45-2.92 18.34-4.91 21.96s-3.89 11.2-4.22 16.84-2.82 21.45-5.53 35.14c-7.32 36.92-8.6 52.71-4.28 52.71 1.99 0 5.34 2.31 7.45 5.12 3.48 4.68 4.12 4.29 7.19-4.39 4.71-13.27 8.66-11.87 8.66 3.08 0 11.2 3.77 19.62 8.79 19.62 0.96 0 3.34-1.58 5.27-3.52zm32.8-31.53c0-1.56 1.97-2.08 4.39-1.15 2.41 0.92 4.39 2.2 4.39 2.83 0 0.64-1.98 1.15-4.39 1.15-2.42 0-4.39-1.27-4.39-2.83zm-13.18-28.88c-11.31-1.27-18.57-7.8-25.24-22.71-13.78-30.79 14.34-83.21 44.63-83.21 19.76 0 32.71 17 32.48 42.63-0.35 39.2-22.79 66.58-51.87 63.29zm15.34-12.94c1.58-2.02 2.25-8.68 1.48-14.8-1.31-10.48-1.94-11.09-10.57-10.25-7.58 0.73-9.76 2.67-12.52 11.14-3.03 9.27-2.75 10.59 2.92 13.8 8.17 4.63 15.1 4.67 18.69 0.11zm23.87-29.94c4.99-19.85 3.99-31.33-3.56-40.76-3.73-4.66-8-7.96-9.5-7.32-1.66 0.7-1.74 14.02-0.2 34.18 2 26.28 3.29 32.4 6.26 29.93 2.06-1.71 5.21-8.92 7-16.03zm-52.39 4.01c0-1.77 5.28-14.5 11.74-28.28s11.24-25.55 10.64-26.15c-0.61-0.61-5.17 3.54-10.15 9.2-11.83 13.48-22.78 48.46-15.16 48.46 1.61 0 2.93-1.45 2.93-3.23zm28.1-15.47c0.85-2.23 1.14-9.62 0.64-16.43l-0.92-12.38-8.02 16.44-8.02 16.43h7.38c4.06 0 8.08-1.83 8.94-4.06zm-71.79-35.72c0.14-3.41 0.83-4.1 1.77-1.77 0.84 2.12 0.74 4.64-0.24 5.62-0.97 0.97-1.66-0.76-1.53-3.85zm-126.15 148.13c0-1.61-4.283-2.8-9.518-2.64-9.017 0.28-9.132 0.42-2.196 2.64 10.334 3.31 11.714 3.31 11.714 0zm31.294-5.93c0.48-3.18-0.27-5.78-1.69-5.78-3.05 0-6.25 10.66-3.91 13 2.34 2.35 4.58-0.54 5.6-7.22zm12.63 3.17c0-3.45-5.71-7.15-7.81-5.05s1.6 7.81 5.06 7.81c1.51 0 2.75-1.24 2.75-2.76zm-23.77-2.36c-0.19-1.21-0.1-2.86 0.22-3.67 2.49-6.46 2.45-14.64-0.07-14.64-1.69 0-2.27 1.32-1.27 2.93s0.27 2.93-1.6 2.93c-1.88 0-2.72 1.82-1.87 4.04 0.85 2.21 0.07 5.51-1.74 7.32-2.43 2.42-1.98 3.28 1.7 3.28 2.73 0 4.82-0.99 4.63-2.19zm-3.8-21.97c2.03-4.43 2.63-8.05 1.33-8.05-3.28 0-11.87 18.72-11.63 25.33 0.16 4.24 0.9 3.82 3.4-1.9 1.76-4.03 4.86-10.95 6.9-15.38zm-34.11 8.79c-0.174-8.9-0.363-9.08-2.934-2.66-1.512 3.77-2.009 8.05-1.106 9.52 2.998 4.85 4.228 2.76 4.04-6.86zm52.9 2.37c0-0.71-1.32-2.11-2.93-3.1-1.61-1-2.93-0.42-2.93 1.29 0 1.7 1.32 3.1 2.93 3.1s2.93-0.58 2.93-1.29zm351.59-4.22c-1.62-3.02-8.28-7.64-14.81-10.25-13.72-5.49-17.59-5.89-17.59-1.81 0 1.61 2.3 2.95 5.12 2.97 2.82 0.03 10.4 3.2 16.84 7.05s12.09 7.12 12.55 7.27-0.49-2.2-2.11-5.23zm-389.66-0.35c0-1.61-0.581-2.93-1.291-2.93s-2.106 1.32-3.101 2.93c-0.996 1.61-0.415 2.93 1.291 2.93s3.101-1.32 3.101-2.93zm2.929-8.78c0-1.61-1.318-2.93-2.929-2.93-1.61 0-2.928 1.32-2.928 2.93s1.318 2.92 2.928 2.92c1.611 0 2.929-1.31 2.929-2.92zm7.394-11.15c-0.9-0.9-3.26 0-5.247 2-2.87 2.89-2.534 3.23 1.639 1.64 2.888-1.1 4.518-2.74 3.608-3.64zm424.54-39.88c10.78-21.36 11.71-25.08 11.71-46.85 0-13.01-1.79-29.83-3.99-37.39l-3.99-13.74-9.19 5.03c-20.82 11.39-24.63 15.46-31.15 33.34-5.05 13.85-6.18 21.7-4.91 33.99 1.28 12.38 0.86 15.2-1.84 12.49-2.1-2.1-3.5-12.49-3.5-26.04v-22.55l-15.89-8.05c-26.71-13.53-35.17-10.81-39.4 12.69-1.45 8.03-0.68 11.53 3.28 14.94 5.61 4.83 25.48 15.52 33.71 18.14 2.82 0.9 5.13 3.7 5.13 6.22 0 3.68-1.16 3.97-5.86 1.45-4.58-2.45-5.86-2.22-5.86 1.05 0 2.3 3.05 4.94 6.77 5.87 3.73 0.94 10.64 5.03 15.38 9.1 4.73 4.07 10.21 7.41 12.19 7.41 1.97 0 5.67 4.04 8.22 8.97 7.84 15.15 15.58 10.89 29.19-16.07zm-81.93-21.07c-2.6-2.6-5.46-4.01-6.35-3.12-2.61 2.61 1.85 7.86 6.67 7.86 3.82 0 3.78-0.64-0.32-4.74zm44.89-53.82c3.05-8.76 3.02-8.79-8.5-9.23-6.36-0.24-13.1-0.57-14.98-0.73-7.72-0.66-4.6 5.98 5.64 12.02 14.1 8.32 14.22 8.31 17.84-2.06zm-283.62-5.23c0-1.26-4.23-4.79-9.39-7.85-5.26-3.1-7.8-6.08-5.77-6.76 2-0.67 7.09 1.05 11.32 3.82 6.73 4.41 7.46 4.46 5.89 0.38-1.06-2.77 2.35-10.81 8.41-19.81 5.61-8.34 9.83-15.46 9.39-15.84-3.79-3.18-20.54-10.21-24.35-10.21-3.99 0-4.62 2.8-3.8 16.82l0.98 16.82-10.98 2.73c-6.04 1.5-10.94 3.49-10.89 4.41 0.09 1.89 23.58 17.14 27 17.54 1.2 0.13 2.19-0.79 2.19-2.05zm309.37-17.13c7.15-3.4 9.25-5.75 7.07-7.93-1.71-1.7-3.1-5.55-3.1-8.54s-1.32-4.63-2.93-3.63c-1.61 0.99-2.93 5.68-2.93 10.42 0 4.73-0.48 8.61-1.06 8.61-0.59 0-8.08 1.33-16.65 2.95-20.39 3.87-25.58 1.93-27.9-10.44-2.67-14.19-11.85-14.03-13.52 0.24-1.09 9.36-0.38 10.57 7.73 13.08 12.06 3.74 40.78 1.17 53.29-4.76zm11.76-22.3c-0.81-2.01-1.47-0.37-1.47 3.66s0.66 5.67 1.47 3.66c0.82-2.01 0.82-5.31 0-7.32zm51.96 5.69c3.21-2.35 4.84-6.58 4.22-10.98-0.96-6.81-2.09-7.19-23.43-7.79-23.71-0.67-30.74 2.51-27.02 12.19 1.27 3.31 4 4.48 8.11 3.48 3.4-0.83 8.75 0.38 11.87 2.71 7.08 5.25 19.35 5.44 26.25 0.39zm-214.78-10.82c3.26 0 3.26-0.62 0.04-3.66-3.1-2.92-4.14-2.92-5.22 0-0.74 2.02-3.21 3.66-5.49 3.66-4.45 0-5.48 3.55-2.03 7 1.16 1.16 3.61 0.07 5.45-2.44 1.83-2.51 5.09-4.56 7.25-4.56zm148.44 4.02c9.5-2.55 8.1-6.94-2.2-6.94-8.29 0-8.78-0.65-8.78-11.72 0-13.4-0.74-13.9-8.79-5.85-6.98 6.97-7.45 9.21-1.46 6.91 5.39-2.07 5.98 5.79 0.73 9.84-2.01 1.55-7.61 2.7-12.45 2.55-6.88-0.21-8.99-1.75-9.75-7.13-0.81-5.7 0.02-6.55 4.88-5.01 3.21 1.02 6.69 0.49 7.73-1.19 1.14-1.85-1.52-3.05-6.76-3.05-6.98 0-9.02-1.54-10.66-8.05-1.11-4.43-4.55-10.42-7.66-13.31-5.48-5.12-5.57-8.37-0.73-26.23 1.09-4.01-0.11-4.91-5.4-4.1-6.26 0.96-6.82 2.54-7.18 20.42-0.32 16.22 0.46 19.65 4.83 21.04 2.86 0.91 6.87 1.28 8.91 0.82 4.54-1.02 6.76 20.12 2.41 22.81-1.62 1-5.63-0.61-8.92-3.58-5.86-5.31-5.95-5.28-4.94 1.79 0.68 4.71 3.56 7.89 8.35 9.21 9.3 2.57 49.14 3.1 57.84 0.77zm-170.73-9.13c9.76-1.51 15.38-9.14 20.6-27.97 2.77-9.99 12.7-34.63 22.06-54.77 9.37-20.13 18.7-44.76 20.75-54.72 3.02-14.67 4.97-18.44 10.23-19.76 4.68-1.17 6.09-3.21 5.02-7.29-1.22-4.65 0.27-5.83 8.32-6.6 8.21-0.79 9.96-2.24 10.72-8.89 0.51-4.38-1.29-12.61-3.99-18.31-3.87-8.16-6.62-10.35-13-10.35-9.86 0-14.33 4.93-15.78 17.38-0.61 5.19-2.58 10.91-4.39 12.72s-3.28 5.66-3.28 8.56c0 8.72-5 5.93-6.96-3.88-1.01-5.03-1.83-15.4-1.83-23.03 0-9.96-1.86-16.25-6.59-22.26-5.32-6.77-6.59-12.09-6.59-27.76 0-17.49-0.67-19.7-6.9-22.64-6.39-3.01-6.81-2.71-5.53 3.94 1.78 9.34-0.51 9.07-13.97-1.63-6.11-4.85-11.66-8.27-12.33-7.59-2.25 2.24 8.07 19.34 11.72 19.41 5.45 0.09 18.43 10.95 16.01 13.38-1.18 1.17-4.56-0.06-7.51-2.73-7.86-7.11-15.87-5.99-28.39 3.96-6.11 4.85-11.88 8.04-12.84 7.08s0.31-3.28 2.82-5.16c15.36-11.52 20.99-16.9 19.37-18.52-1.01-1.01-3.66-0.33-5.88 1.51-4.16 3.45-19.49 1.85-29.04-3.03-4.06-2.08-5.13-1.38-5.13 3.34 0 6.26-4.24 8.01-7.32 3.03-3.53-5.71-10.25-2.99-10.25 4.15 0 11.05-2.9 16.17-8.04 14.2-3.07-1.18-3.92-0.62-2.52 1.65 1.17 1.88 0.82 3.43-0.77 3.43-4.11 0-15.01-14.53-15.12-20.17-0.08-3.64-1.42-3.14-5.86 2.19-7.74 9.29-7.25 14.56 1.56 16.77 4.03 1.01 7.32 3.09 7.32 4.62 0 1.54-1.4 1.92-3.12 0.86-6.24-3.86-23.93-1.9-28.69 3.17-4.96 5.28-4.39 5.29 8.39 0.13 2.54-1.03 7.71 1.3 12.28 5.54 5.11 4.74 9.67 6.64 12.93 5.39 3.27-1.25 4.33-0.8 3.04 1.29-3.23 5.23 4.53 7.89 8.23 2.83 3.03-4.14 3.74-4.03 6.9 1.02 5 8.01 8.79 7.13 26.23-6.09 35.49-26.9 43.91-29.53 57.34-17.88 4.25 3.69 5.07 7.29 3.78 16.69-1.01 7.32-0.32 13.31 1.75 15.38 2.57 2.58 0.04 3.4-10.47 3.4-9.33 0-18.85 2.58-29.14 7.9-15.57 8.06-31.38 11.2-31.38 6.22 0-1.51-1.32-1.94-2.93-0.95-1.61 1-2.92-0.08-2.92-2.4 0-5.64-24.92-13.97-29.15-9.74-1.69 1.69-3.07 4.89-3.07 7.11 0 3.01-2.63 2.42-10.24-2.28-11.06-6.84-21.39-6.27-37.7 2.07-7.87 4.02-8.3 5.16-6.63 17.34 2.24 16.33 6.97 25.42 12.19 23.42 2.53-0.97 3.45-0.06 2.47 2.48-1.96 5.11 7.65 10.32 19.05 10.32 9.22 0 14.77-4.4 8.44-6.69-2.12-0.76-0.15-2.98 4.63-5.23 7.44-3.49 9.7-3.16 21.5 3.1 9.94 5.27 14.38 6.24 18.04 3.95 8.53-5.35 7.51-15.1-2.56-24.5-6.5-6.07-7.89-8.7-4.6-8.7 6 0 16.41 10.32 16.41 16.28 0 2.51 1.14 3.86 2.54 3 1.4-0.87 0.44 3.06-2.12 8.72-5.73 12.63-15.67 15.9-27.58 9.07-10.48-6.02-12.24-6.03-18.15-0.13-4.61 4.62-13.28 7.5-39.08 12.98-16.42 3.49-18.1 4.71-18.1 13.04 0 8.02 0.97 8.83 13.91 11.6 10.45 2.25 13.55-2.54 3.36-5.2-3.64-0.96-5.31-2.97-4.09-4.94 2.26-3.65 23.95-1.26 29.57 3.26 1.77 1.42 10.31 3.93 18.98 5.58 13.99 2.65 16.65 2.32 23.75-2.92 5.46-4.04 12.54-5.91 22.38-5.91 13.29 0 15.31-1 26.47-13.12 15.41-16.71 15.99-23.02 1.86-20.37-11.35 2.13-24.91-0.29-24.91-4.45 0-1.48 4.47-1.97 9.95-1.08 7.55 1.23 13.54-0.4 24.79-6.72 11.13-6.26 15.68-7.51 18.19-5 4.63 4.63 14.69 41.95 11.3 41.95-1.5 0-2.77-1.65-2.8-3.66-0.11-6.18-11.64-29.54-13.61-27.57-1.02 1.02-1.62 9.45-1.35 18.74 0.72 24.03-4.23 46.51-13.46 61.1-6.43 10.17-10.09 12.95-19.01 14.46-6.08 1.03-11.75 3.01-12.62 4.41-1.85 2.99-10.72 0.21-13.72-4.3-2.81-4.23-12.49 5.41-9.8 9.75 1.09 1.77 10.11 3.2 20.11 3.2 22.22-0.02 34.45-6.61 42.86-23.1 3.27-6.4 7.27-12.46 8.91-13.47 4.35-2.69 3.64 0.86-2.13 10.63-4.47 7.56-4.56 8.97-0.73 11.39 3.49 2.2 3.04 2.77-2.23 2.8-3.62 0.03-6.59 1.73-6.59 3.8 0 2.06-3.75 5.17-8.35 6.9-7.24 2.73-8.62 5.16-10.35 18.2-2.16 16.29-1.72 19.93 2.23 18.61 1.4-0.47 1.75 1.25 0.76 3.81-1.23 3.22-0.67 3.97 1.84 2.41 1.99-1.25 6.19-2.67 9.33-3.16zm36.98-114.95c-0.2-5.64-1.51-15.19-2.91-21.23-1.49-6.41-1.46-10.98 0.07-10.98 1.44 0 2.62 1.46 2.62 3.24s1.97 2.48 4.39 1.56c2.99-1.15 4.39 0.16 4.39 4.08 0 3.17-1.34 5.76-2.98 5.76-1.65 0-2.51 2.97-1.93 6.59s0.08 9.88-1.12 13.91c-1.96 6.63-2.2 6.35-2.53-2.93zm-94.91 0.16c4.6-4.95 7.83-6.17 11.72-4.44 4.73 2.1 4.5 2.53-1.96 3.61-4.02 0.68-9.29 2.68-11.71 4.44-2.42 1.77-1.54 0.14 1.95-3.61zm31.73-11.87c-1-1.61-0.42-2.93 1.29-2.93 1.7 0 3.1 1.32 3.1 2.93s-0.58 2.93-1.29 2.93-2.11-1.32-3.1-2.93zm-29.29-17.57c-0.99-1.61-0.41-2.93 1.29-2.93 1.71 0 3.11 1.32 3.11 2.93s-0.59 2.93-1.3 2.93-2.1-1.32-3.1-2.93zm-51.59-3.38c5.44-1.56 13.06-4.92 16.93-7.45 6.46-4.23 8-4.18 18.65 0.62 6.39 2.88 11.62 6.36 11.62 7.72 0 3.62-3.6 2.9-10.08-2-7.17-5.42-16.1-5.35-23.42 0.19-3.13 2.36-9.72 4.18-14.64 4.03l-8.96-0.26 9.9-2.85zm176.05-34.24c0-4.58 2.45-10.54 5.44-13.25 4.85-4.39 5.83-4.44 9.14-0.45 3.06 3.69 2.88 4.46-1.05 4.46-5.5 0-6.57 8.74-1.09 8.88 3.92 0.1-6.04 8.69-10.07 8.69-1.31 0-2.37-3.74-2.37-8.33zm-137.63-0.45c5.67-3.67 8.78-3.67 8.78 0 0 1.61-2.96 2.91-6.59 2.88-5.33-0.03-5.75-0.58-2.19-2.88zm96.63-26.53c0-3.31 1.32-5.21 2.93-4.22 1.61 1 2.93 3.71 2.93 6.03s-1.32 4.22-2.93 4.22-2.93-2.71-2.93-6.03zm0 205.16c0-1.61-1.32-2.93-2.93-2.93s-2.93 1.32-2.93 2.93 1.32 2.93 2.93 2.93 2.93-1.32 2.93-2.93zm151.15-9.3c-2.42-12.08-3.9-13.29-9.48-7.71-3.66 3.67-3.93 5.89-1.29 10.81 1.82 3.41 5.41 6.2 7.97 6.2 3.67 0 4.26-1.97 2.8-9.3zm14.62-3.66c-1.04-4.15-3.84-7.54-6.23-7.54-5.12 0-5.62 6.76-1.14 15.15 4.34 8.11 9.88 2.39 7.37-7.61zm-221.41 7.1c0-1.61-2.3-2.91-5.12-2.88-4.38 0.04-4.49 0.46-0.73 2.88 5.52 3.57 5.85 3.57 5.85 0zm58.57-2.93c0-1.61-1.32-2.92-2.93-2.92s-2.93 1.31-2.93 2.92c0 1.62 1.32 2.93 2.93 2.93s2.93-1.31 2.93-2.93zm-51.25-2.92c1-1.61 0.42-2.93-1.29-2.93-1.7 0-3.1 1.32-3.1 2.93s0.58 2.92 1.29 2.92 2.11-1.31 3.1-2.92zm229.88-7.47c0-7.88-3.43-10.85-9.75-8.42-3.53 1.35-3.83 3.41-1.51 10.08 3.46 9.92 11.26 8.78 11.26-1.66zm-113.15-21.09c-0.97-9.26-3.02-18.4-4.55-20.32-4.33-5.41-10.59-1.32-12.7 8.28-1.6 7.27-0.31 10.32 7.87 18.61 5.39 5.45 10.1 10 10.47 10.09 0.38 0.1-0.11-7.39-1.09-16.66zm68.53 3.91c-1.21-10.76-0.57-13.18 3.84-14.33 6.55-1.71 14.42 6.51 14.42 15.05 0 4.27 1.81 6.36 5.5 6.36 8.22 0 13.05-7.57 11.09-17.38-1.98-9.92 3.26-13.5 9.25-6.31 3.31 3.99 3.63 3.22 2.18-5.32-2.28-13.41-7-18.99-12.33-14.57-2.68 2.23-3.09 4.5-1.22 6.76 3.58 4.31-20.1 11.86-28.67 9.13-8.1-2.57-18.01 8.67-18.01 20.43 0 10.71 1.77 13.11 9.66 13.11 5.06 0 5.57-1.53 4.29-12.93zm11.86 0.71c-1.32-13.42-8.24-14.43-8.24-1.2 0 7.57 1.28 10.49 4.58 10.49 3.38 0 4.34-2.42 3.66-9.29zm38.62 5.07c0-0.71-1.32-2.1-2.93-3.1-1.61-0.99-2.93-0.41-2.93 1.29 0 1.71 1.32 3.11 2.93 3.11s2.93-0.59 2.93-1.3zm-79.07-10.06c0-3.69-8.6-10.31-10.68-8.22-3 3 1.48 10.79 6.2 10.79 2.46 0 4.48-1.16 4.48-2.57zm-95.19-15.02c-0.98-1.6-0.49-2.91 1.1-2.91 1.58 0 3.48 2.31 4.22 5.13s1.49 0.8 1.68-4.49 2.33-14.38 4.77-20.22c7.35-17.59 2.44-14.46-7.17 4.56-4.93 9.78-8.93 20.79-8.88 24.46 0.08 5.96 0.4 6.12 3.08 1.52 1.65-2.83 2.19-6.45 1.2-8.05zm-64.4-1.44c0-2.96-1.65-5.92-3.67-6.59-2.31-0.78-3.66 1.64-3.66 6.59 0 4.94 1.35 7.36 3.66 6.59 2.02-0.68 3.67-3.64 3.67-6.59zm-15.14-3.17c-0.88-2.29-2.7-4.15-4.04-4.15-3.61 0-6.32 5.43-4.33 8.65 2.64 4.28 10.18 0.22 8.37-4.5zm29.29-5.83c-0.88-2.3-2.7-4.18-4.05-4.18-3.95 0-6.37 5.78-4.47 10.72 1.38 3.61 2.64 3.85 5.94 1.11 2.3-1.91 3.46-5.35 2.58-7.65zm192.29 3.1c0-1.43-1.64-4.94-9.13-19.51-2.67-5.21-2.31-7.08 1.99-10.23 4.44-3.24 6.11-3.09 10.6 0.97 2.93 2.66 5.33 7.26 5.33 10.23s1.32 5.4 2.93 5.4c5.28 0 3.07-11.22-3.78-19.18l-6.71-7.8-11.59 5.44c-8.9 4.18-11.82 7.37-12.54 13.68-1.29 11.21 6.57 22.5 15.65 22.5 3.99 0 7.25-0.67 7.25-1.5zm-38.7-8c7.29 1.07 9.42 0.31 9.42-3.34 0-3.76-3.2-4.73-15.7-4.73-8.63 0-21.73-0.82-29.1-1.83-12.56-1.73-13.31-1.45-11.81 4.28 1.4 5.38 2.12 5.61 5.89 1.84 5.73-5.73 6.48-5.5 9.75 3.09 2.69 7.09 3.19 7.22 12.47 3.35 5.31-2.22 13.9-3.42 19.08-2.66zm-147.25 0.72c1-1.61 0.42-2.93-1.29-2.93-1.7 0-3.1 1.32-3.1 2.93s0.58 2.93 1.29 2.93 2.11-1.32 3.1-2.93zm-60.34-2.55c7.65-2.14 13.7-13.64 8.77-16.69-1.65-1.02-3.67 0.73-4.49 3.87-1.51 5.79-8.33 6.54-19.34 2.15-5.34-2.13-6.41 0.61-3.35 8.59 1.86 4.84 6.64 5.38 18.41 2.08zm51.32-3.2c7.61-3.27 13.42-7.7 13.42-10.25 0-6.17-3.92-5.64-10.29 1.4-3.21 3.54-7.41 5.24-10.53 4.25-3.36-1.07-6.31 0.46-8.39 4.35-4.02 7.52-1.28 7.56 15.79 0.25zm200.83-1.21c0-7.08-7.46-15.84-10.71-12.59-2.35 2.35 4.81 19.55 8.14 19.55 1.41 0 2.57-3.13 2.57-6.96zm-278.79-3.52c0.68-4.75-1.78-7.14-11.14-10.81-14.39-5.65-18.18-1.51-10.01 10.96 6.27 9.57 19.78 9.48 21.15-0.15zm54.53-3.77c0.86-1.4-1.04-4.9-4.22-7.78-5.63-5.09-5.79-5.02-5.79 2.54 0 7.52 6.5 10.92 10.01 5.24zm156.91-10.64c0-8.34-1.11-10.25-5.93-10.25-3.68 0-7.02 2.87-8.81 7.57-3.59 9.45-1.56 12.93 7.59 12.93 6.22 0 7.15-1.34 7.15-10.25zm-131.78-4.57c0-1.51-1.32-2.75-2.93-2.75s-2.92 2.05-2.92 4.56 1.31 3.75 2.92 2.76c1.61-1 2.93-3.05 2.93-4.57zm77.37-15.21l-2.06-6.48-2.42 6.54c-1.33 3.6-1.61 8.67-0.61 11.26 1.65 4.31 2.03 4.3 4.47-0.07 1.47-2.62 1.75-7.68 0.62-11.25zm97.48 4.49c-4.72-4.72-5-4.66-5 0.99 0 7.68 3.16 10.84 7 7 2.04-2.04 1.41-4.58-2-7.99zm-163.13 0.74c0-2.62-1.72-3.64-4.4-2.62-2.41 0.93-4.39 2.87-4.39 4.3 0 1.44 1.98 2.62 4.39 2.62 2.42 0 4.4-1.94 4.4-4.3zm125.18-5.22c-0.67-2.01-2.97-3.66-5.12-3.66s-4.45 1.65-5.13 3.66c-0.72 2.18 1.35 3.66 5.13 3.66 3.77 0 5.85-1.48 5.12-3.66zm-116.4-8.22c0-1.52-1.32-2.76-2.93-2.76s-2.93 2.05-2.93 4.57c0 2.51 1.32 3.75 2.93 2.75 1.61-0.99 2.93-3.05 2.93-4.56zm146.42 3.1c0-1.61-0.58-2.93-1.29-2.93s-2.11 1.32-3.1 2.93c-1 1.61-0.42 2.93 1.29 2.93 1.7 0 3.1-1.32 3.1-2.93zm-26.36-24.49c0-20.1-3.46-40.25-6.74-39.15-2.19 0.73-3.85 40.08-2.15 51.19 0.06 0.4 2.09 0.73 4.5 0.73 3.23 0 4.39-3.37 4.39-12.77zm18.63 2.52c-0.92-2.41-2.2-4.39-2.83-4.39-0.64 0-1.15 1.98-1.15 4.39 0 2.42 1.27 4.4 2.83 4.4s2.08-1.98 1.15-4.4zm-65.48-4.39c0-1.61-1.32-2.93-2.93-2.93s-2.93 1.32-2.93 2.93 1.32 2.93 2.93 2.93 2.93-1.32 2.93-2.93zm11.71-2.37c0-6.87-7.64-17.32-10.54-14.41-1.24 1.23-0.68 3.8 1.22 5.7 1.91 1.91 3.47 5.84 3.47 8.74s1.31 5.27 2.93 5.27c1.61 0 2.92-2.38 2.92-5.3zm52.3-15.2c-0.28-8.05-1.71-14.64-3.17-14.64s-2.01 6.26-1.21 13.91c1.72 16.44 1.48 15.37 3.38 15.37 0.84 0 1.29-6.59 1-14.64zm-393.69-1.78c2.548-0.97 4.63-3.58 4.63-5.79 0-3.21-1.453-3.35-7.227-0.72-9.599 4.37-7.241 10.29 2.597 6.51zm-18.795-9.84c0-1.56-1.976-2.08-4.392-1.15s-4.393 2.2-4.393 2.84c0 0.63 1.977 1.15 4.393 1.15s4.392-1.28 4.392-2.84zm-22.973-7.72c-1.378-7.57-2.905-8.66-6.748-4.82-4.099 4.1-0.834 13.38 4.1 11.66 2.012-0.71 3.204-3.78 2.648-6.84zm41.845 4.96c2.372-3.83-1.312-11.97-5.422-11.97-5.354 0-10.246 6.09-8.515 10.6 1.737 4.53 11.4 5.48 13.937 1.37zm26.203-9.37c1.98-8.02 1.45-12.91-2.2-20.22-6.12-12.26-6.28-11.82 3.62-9.84 11.98 2.4 13.71-3.19 3.28-10.62-7.09-5.04-10.47-5.76-16.87-3.58-6.4 2.19-7.84 4.3-7.17 10.48 0.46 4.26-0.53 7.75-2.2 7.75-1.668 0-3.036 2.66-3.036 5.91 0 4.83 1.329 5.58 7.246 4.1 5.84-1.47 7.91-0.37 10.64 5.61 4.27 9.38 1.63 16.59-6.08 16.59-3.27 0-5.95 1.41-5.95 3.12 0 1.72 3.62 2.71 8.05 2.2 6.53-0.75 8.55-2.93 10.67-11.5zm56.43 2.52c-0.81-2.01-1.48-0.37-1.48 3.66s0.67 5.67 1.48 3.66 0.81-5.31 0-7.32zm-107.89 0.03c-1.388-9.73-11.185-10.59-11.185-0.98 0 5.67 1.502 7.54 6.061 7.54 4.603 0 5.835-1.58 5.124-6.56zm255.15-2.01c5.5-4.23 6.42-6.44 3.94-9.46-1.78-2.16-3.69-6.87-4.25-10.47-1-6.49-1.11-6.47-14.92 2.54-7.65 5-13.91 10.64-13.91 12.54 0 10.91 17.47 13.81 29.14 4.85zm-214.12-5.6c0.8-5.65-0.19-6.63-5.86-5.83-6.262 0.89-8.949 6.3-6.007 12.11 2.427 4.79 10.927 0.29 11.867-6.28zm290.26-1.5c3.29-9.96 12.79-16.54 23.88-16.54 3.24 0 5.08-1.32 4.08-2.93-0.99-1.61 0.58-2.93 3.49-2.93 4.54 0 5.15-2.09 4.28-14.64-0.81-11.79-0.12-14.64 3.59-14.64 3.73 0 4.06-1.43 1.75-7.51-4.71-12.38-3.29-14.41 4.84-6.91l7.69 7.1-4.8-9.43c-2.63-5.19-7.41-10.84-10.62-12.55-8.28-4.43-7.26-9.24 1.5-7.05 11.34 2.85 8.64-1.42-4.67-7.38-12.53-5.6-12.38-6.9 1.13-10.128 9.89-2.367 7.4-8.782-2.66-6.858-7.91 1.511-9.5-2.118-2.17-4.93 2.65-1.016 4.15-2.512 3.33-3.324-0.81-0.812-5.13-0.086-9.61 1.615-9.11 3.466-13.85 1.292-7.23-3.317 3.31-2.304 2.61-2.678-3.01-1.615-4.03 0.761-11.94 2.254-17.57 3.317l-10.25 1.933 10.56-5.561c5.82-3.058 13.72-7.892 17.57-10.742l7.01-5.181-7.32 1.993c-4.03 1.097-12.34 2.394-18.46 2.883l-11.14 0.89 6.01-6.398c11.43-12.161 5.54-14.605-7.06-2.931-4.44 4.116-8.72 6.843-9.5 6.06-2.29-2.292 8.44-19.924 19.59-32.204 6.42-7.068 8.1-10.192 4.45-8.293-7.53 3.915-20.4 17.842-37.78 40.864-7.59 10.066-15.21 18.302-16.93 18.302-2.13 0-2.09-1.23 0.14-3.913 5.01-6.038 12.19-28.299 9.12-28.299-1.49 0-4.59 3.627-6.89 8.06-4.21 8.145-16.48 20.926-16.48 17.168 0-1.119 2.73-7.381 6.06-13.915 6.24-12.22 5.18-19.701-1.49-10.576-5.14 7.024-8.31 6.433-5.92-1.104 2.95-9.29-3.09-4.27-7.41 6.161-8.62 20.82-8.63 0.745-0.01-21.935 1.69-4.454 2.47-8.711 1.72-9.46-2.95-2.95-22.23 43.137-22.23 53.139 0 5.792-1.32 10.531-2.93 10.531s-2.98-6.918-3.04-15.374l-0.12-15.374-4.88 8.785-4.88 8.785-1.65-8.785c-2.12-11.249-5.67-6.089-8.65 12.593l-2.2 13.762-3.62-8.785c-3.79-9.236-3.1-33.977 1.23-43.925 2.27-5.218 2.01-5.42-2.38-1.846-2.71 2.207-6.84 10.447-9.18 18.312-4.12 13.876-3.24 28.9 3.08 52.35 1.27 4.72-3.26 0.5-12.77-11.905-13.77-17.965-28.79-31.28-31.84-28.229-0.74 0.731 1.76 5.12 5.55 9.751 6.73 8.238 19.71 29.373 19.71 32.093 0 0.75-3.62-0.47-8.05-2.73-4.43-2.25-11.35-5.08-15.37-6.29l-7.33-2.2 6.88 7.45c3.79 4.09 10.7 9.03 15.38 10.97 10.41 4.31 11.19 9.26 1.17 7.45-4.62-0.84-7.32 0.02-7.32 2.34 0 2.02-3.29 6.54-7.32 10.04-10.47 9.1-9.05 13.22 2.2 6.37 10.58-6.45 16.98-7.73 11.56-2.31-4.6 4.6-4.53 9.17 0.1 6.31 1.98-1.22 5.95-2.4 8.81-2.61s8.37-3.37 12.25-7.01l7.06-6.63-1.56 11.62c-1.87 13.95 3.61 19.38 6.46 6.4 1.45-6.61 2.9-8.17 5.54-5.98s4.54 0.3 7.25-7.18c4.17-11.55 8.95-13.33 9.54-3.56l0.4 6.59 1.27-6.59c1.18-6.11 6.72-9.57 6.72-4.2 0 3.07 20.72 13.01 22.8 10.93 0.86-0.86-0.62-3.99-3.29-6.94-7.72-8.53-6.07-12.52 3.19-7.69 11.96 6.24 14.31 5.14 6.58-3.08-6.47-6.89-6.54-7.32-1.13-7.32 3.17 0 10.92 2.63 17.24 5.85s11.74 5.86 12.06 5.86c0.31 0-0.19-2.96-1.13-6.59-1.52-5.91-1.19-6.17 3.3-2.49 4.34 3.56 5.53 3.37 9.2-1.47 4.05-5.36 4.21-5.36 4.3-0.12 0.06 3.62 1.56 4.87 4.48 3.75 3.63-1.39 4.41 1.73 4.49 17.99 0.08 16.99 0.62 18.98 3.98 14.55 5.63-7.41 7.01-6.36 5.76 4.4-0.73 6.16 0.44 10.66 3.31 12.77 3.66 2.69 3.92 5.91 1.5 18.7-1.61 8.49-2.93 17.24-2.93 19.44 0 7.6 5.41 3.95 8.64-5.82zm57.12 1.23c0.93-1.5 0.35-3.55-1.29-4.57-1.64-1.01-2.98 0.22-2.98 2.73 0 5.14 1.76 5.9 4.27 1.84zm10.38-0.2c0-1.61-1.32-2.93-2.93-2.93s-2.93 1.32-2.93 2.93 1.32 2.93 2.93 2.93 2.93-1.32 2.93-2.93zm-416.38-16.11c0.795-12.36 0.344-13.72-3.497-10.53-2.742 2.27-4.236 8.01-3.95 15.18 0.644 16.16 6.336 12.6 7.447-4.65zm33.987 14.33c2.819-1.08 4.683-5.38 4.761-10.98 0.071-5.06 1.999-14.46 4.285-20.88 2.667-7.49 3.146-12.68 1.336-14.49s-2.821-0.98-2.821 2.33c0 2.83-1.376 4.3-3.057 3.26-8.04-4.97-18.321 18.32-11.641 26.36 2.501 3.02 2.542 5.68 0.156 10.13-3.339 6.24-1.342 7.46 6.981 4.27zm153.98-7.01c0-9.61-5.61-11.74-11.68-4.43-4.84 5.84-1.64 13.22 5.74 13.22 4.65 0 5.94-1.91 5.94-8.79zm-169.84-4.03c0-5.44 1.976-14.62 4.392-20.41 5.896-14.11 5.561-16.6-2.196-16.32-3.624 0.12-4.942 0.89-2.928 1.71 5.05 2.03 4.608 6.84-0.629 6.84-5.075 0-10.353 8.86-10.353 17.38 0 3.33 1.364 6.05 3.032 6.05 2.089 0 2.089 1.76 0 5.66-4.214 7.87-3.866 8.98 2.825 8.98 4.701 0 5.857-1.95 5.857-9.89zm181.56 6.96c0-1.61-1.4-2.93-3.1-2.93-1.71 0-2.29 1.32-1.3 2.93 1 1.61 2.4 2.93 3.11 2.93s1.29-1.32 1.29-2.93zm106.5-3.66c3.48-12.96 2.01-19.89-4.74-22.44-3.92-1.48-8.88-1.29-12.23 0.47-5.3 2.78-5.15 3.22 2.51 7.23 6.88 3.61 7.88 5.61 6.44 12.8-2.07 10.4 5.28 12.18 8.02 1.94zm132.16 3.66c0.99-1.61 0.49-2.93-1.12-2.93s-3.74 1.32-4.74 2.93c-0.99 1.61-0.49 2.93 1.12 2.93s3.74-1.32 4.74-2.93zm50.51-7.01l12.45 1.82v-10.48c0-15.16-7.75-18.57-24.93-10.97-7.23 3.2-13.14 4.86-13.14 3.7 0-3.08 10.96-11.97 12.66-10.27 0.8 0.79 2.39-1.54 3.55-5.19 1.57-4.95 0.45-7.96-4.45-11.93-3.6-2.92-7.83-5.31-9.39-5.31s-8.81 5.97-16.1 13.27c-9.51 9.51-14.83 12.78-18.76 11.54-7.16-2.28-20.29 10.65-20.02 19.72l0.2 6.72 3.17-6.59c4.1-8.5 9.17-8.58 6.48-0.1-1.6 5.03 0.23 4.05 8.2-4.4 5.64-5.98 12.02-10.87 14.17-10.87s8.25-4.22 13.56-9.36c6.94-6.73 9.66-8.04 9.66-4.66 0 2.59-4.28 8.31-9.52 12.72-8.47 7.13-10.73 12.92-4.17 10.74 1.32-0.44 1.52 0.63 0.44 2.38s0.23 5.61 2.91 8.58c4.38 4.84 5.7 4.97 12.74 1.26 5.19-2.74 12.06-3.52 20.29-2.32zm-10.98-10.42c8.24-6.6 10.63-7.2 13.05-3.27 2.05 3.31-0.13 4.66-11.58 7.19l-8.79 1.95 7.32-5.87zm80.53 793.82c-7.83-1.66-8.88-3.17-9.67-13.92-0.83-11.41-0.25-12.39 10.76-18.13 9.85-5.13 12.16-5.44 15.04-1.98 1.86 2.25 2.51 6.85 1.44 10.23s-0.41 7.99 1.47 10.25c4.52 5.45 0.9 16.2-5.33 15.76-2.71-0.19-8.88-1.19-13.71-2.21zm17.55-6.19c0.78-1.27-0.49-3.89-2.82-5.82-2.88-2.39-3.66-6.48-2.44-12.78 1.71-8.87 1.55-9.06-3.79-4.52-3.06 2.61-7.06 4.2-8.88 3.54-3.01-1.1-7.57 15.77-5.32 19.69 1.47 2.54 21.66 2.45 23.25-0.11zm15.1-38.89c-2.79-2.04-6.69-6.98-8.66-10.98-1.98-4-6.55-8.58-10.16-10.18-8.68-3.83-11.54-13.2-5.4-17.69 2.61-1.91 4.75-6.79 4.75-10.85 0-9.88 4.02-12.47 25.83-16.64 23.1-4.41 28.33-1.5 25.54 14.25-1.02 5.72-2.21 14.36-2.64 19.19-1.1 12.45-9.64 30-16.32 33.58-7.07 3.78-6.82 3.79-12.94-0.68zm18.06-14.91c0.51-4.25 2.02-7.74 3.37-7.74 1.34 0 2.41-4.94 2.37-10.98-0.03-6.04 0.91-14.59 2.1-19 1.66-6.2 1-8.45-2.94-9.96-3.31-1.27-6.1-0.14-8 3.24-2.2 3.94-3.46 4.3-5.19 1.49-1.46-2.36-4.26-2.86-7.72-1.37-2.98 1.29-7.39 2.47-9.81 2.62-2.72 0.18-4.28 3.02-4.09 7.49 0.16 3.97-2.35 9.34-5.59 11.97-7.24 5.87-4.79 10.5 6.9 13.07 6.85 1.51 8.49 3.16 7.19 7.24-0.93 2.92 0.37 7.34 2.9 9.87 6.57 6.57 17.32 1.96 18.51-7.94zm-643.22-62.42c-8.07-15.82-9.4091-42.5-2.6-51.81 3.133-4.28 3.626-1.22 3.022 18.8-0.512 17.01 0.585 26.45 3.794 32.65 2.483 4.81 3.85 9.4 3.038 10.21-0.811 0.81-4.076-3.62-7.254-9.85zm7.11-49.76c2.118-8.9 9.177-18.55 13.568-18.55 1.478 0-0.044 3.48-3.382 7.72s-6.069 9.44-6.069 11.54-1.371 4.67-3.046 5.71c-1.996 1.23-2.365-0.98-1.071-6.42zm615.42-64.67c1.72-15.95 2.76-18.16 5.36-11.38 2.29 5.97-1.08 25.29-4.41 25.29-1.34 0-1.77-6.26-0.95-13.91zm-8.02-3.46c-0.05-8.23-10.01-38.9-16.47-50.71-2.57-4.71-3.14-8.06-1.36-8.06 8.55 0 25.96 53.14 20.32 62.03-1.7 2.68-2.46 1.69-2.49-3.26zm-440.28-133.93c-2.49-2.49-2.16-27.21 0.45-33.81 1.1-2.76 1.99 4.16 1.99 15.38 0 11.21-0.11 20.38-0.24 20.38s-1.12-0.87-2.2-1.95zm-149.56-16.48c-3.537-7.54 0.186-26.3 6.077-30.61 9.289-6.79 14.803-4.18 6.197 2.94-6.096 5.04-8.168 9.65-8.882 19.75-0.69 9.77-1.567 11.82-3.392 7.92zm140.7-15.24c0.92-2.42 2.2-4.39 2.83-4.39 0.64 0 1.15 1.97 1.15 4.39 0 2.41-1.27 4.39-2.83 4.39s-2.08-1.98-1.15-4.39zm-145.36-19.92c0-6.75 13.32-14.96 19.744-12.16 4.707 2.05 4.647 2.35-0.71 3.54-3.221 0.72-8.822 4.04-12.445 7.38-5.625 5.18-6.589 5.37-6.589 1.24zm549.48-223.32c1.34-11.43 0.65-15.9-3-19.55-6.82-6.82-5.85-10 1.12-3.69 6.35 5.75 8.1 25.63 2.96 33.67-1.89 2.96-2.24-0.45-1.08-10.43zm9.92 2.97c0.08-7.58 0.48-7.98 3.23-3.24 2.26 3.88 2.23 6.33-0.08 8.64-2.36 2.36-3.21 0.9-3.15-5.4zm-52.8-108.54c-5.63-2.58-15.7-4.55-22.37-4.37-8.33 0.23-12.66-1.05-13.82-4.07-2.44-6.36 13.49-5.77 33.38 1.23 18.27 6.43 39.44 5.6 54.79-2.15 11.43-5.78 11.93-8.57 2.2-12.27-7.61-2.89-10.06-8.78-3.66-8.79 3.91 0 19.76-12.6 19.76-15.71 0-1.02-2.96-1.95-6.59-2.06-5.11-0.16-3.97-1.39 5.13-5.5 11.82-5.33 34.96-26.2 32.16-29-0.83-0.83-3.07 0.05-4.98 1.96-2.11 2.11-12.66 3.42-27.03 3.36l-23.58-0.09 6.92-5.76c8.69-7.25 4.52-7.3-14.21-0.19-8.07 3.07-14.67 5-14.67 4.29 0-4.84 11.48-16.84 23.48-24.54 7.97-5.11 18.16-15.27 23.19-23.1 10.53-16.411 11-18.9 3.11-16.396-7.23 2.296-7.24 1.439-0.2-12.355 6.5-12.747 10.55-48.684 5.28-46.927-1.81 0.603-4.17 4.305-5.25 8.227-6.96 25.427-36 54.992-59.93 61.018-6.76 1.701-13.95 5.097-15.98 7.546-6.2 7.467-9.85 4.96-4.55-3.121 2.73-4.166 4.33-8.206 3.56-8.977-2.08-2.076-34.41 16.337-43.74 24.915-8.12 7.45-13.81 21.98-13.92 35.56-0.07 8.68-4.61 16.84-7.67 13.78-1.19-1.19-0.6-3.72 1.3-5.63 1.91-1.9 3.47-9.17 3.47-16.15 0-23.54 5.96-32.04 30.21-43.092 14.22-6.479 24.84-13.708 31.03-21.109l9.41-11.255-1.97 10.973-1.98 10.973 9.84-1.84c25.73-4.81 47.48-29.583 59.42-67.692 2.7-8.6153 12.28-8.6153 14.28 0 1.66 7.109-0.09 39.137-2.49 45.804-1.25 3.481-0.75 3.481 3.48 0 4.5-3.71 4.76-3.288 2.86 4.71-4.51 18.991-17.03 39.598-30.57 50.338-7.54 5.97-14.96 11.92-16.49 13.21-1.57 1.32-0.29 2.33 2.93 2.33 3.14-0.01 10.07-4.1 15.4-9.1 11.48-10.76 14.52-9.59 7.98 3.07-2.6 5.03-3.85 10.58-2.76 12.33 2.87 4.64 26.61 0.7 38.68-6.42 5.56-3.28 10.7-5.37 11.42-4.65 2.36 2.36-7.22 17.73-18.5 29.67-6.09 6.44-10.81 12.71-10.49 13.92s-4.68 6.96-11.13 12.78c-14.18 12.82-14.94 17.14-2.57 14.67 8.36-1.68 8.8-1.4 5.12 3.24-9.79 12.36-17.6 18.52-27.99 22.1-16.29 5.61-38.82 5.75-50.7 0.31zm96.64-117.76c0-1.41 4.08-6.838 9.07-12.062 8.27-8.647 8.91-10.663 7.12-22.541-1.07-7.174-1.08-17.01-0.02-21.859 1.64-7.425 3.16-8.672 9.67-7.909 5.48 0.643 8.02-0.583 8.73-4.218 0.58-2.994-0.78-5.125-3.27-5.125-2.34 0-4.99-2.768-5.87-6.151-0.89-3.383-2.91-5.348-4.5-4.366-3.1 1.914-12.15-5.679-12.15-10.19 0-1.496 7.65-2.7196 16.99-2.7196 17.85 0 26.14 4.1494 20.9 10.464-1.63 1.967-3.24 8.644-3.59 14.839-0.54 9.866-1.96 11.895-11.43 16.348-10.12 4.762-10.7 5.746-9.11 15.494 2.05 12.689-5.68 31.507-15.64 38.026-3.79 2.49-6.9 3.38-6.9 1.97zm-475.86-10.309c-3.22-1.855-13.36-7.712-22.54-13.015-16.9-9.772-23.22-18.975-17.18-25.019 5.03-5.034 16.02 2.473 34.65 23.679 15.73 17.906 16.88 21.156 5.07 14.355zm-16.11-20.944c-5.41-5.588-10.47-9.533-11.24-8.766s-3.16-0.073-5.32-1.867c-2.89-2.393-3.93-2.394-3.93-0.003 0 3.621 26.99 24.154 29.04 22.097 0.72-0.714-3.13-5.872-8.55-11.461zm12.19-7.098c-12.45-14.769-15.46-23.649-8.01-23.649 2.3 0 6.84 3.376 10.09 7.504 6.14 7.804 13.63 27.076 11.39 29.312-0.71 0.707-6.77-5.218-13.47-13.167zm0.4-10.38c-5.38-7.381-11.7-10.383-7.91-3.752 4.03 7.046 7.78 10.981 10.46 10.981 1.49 0 0.34-3.253-2.55-7.229zm409.19 0.787c-0.05-1.127 3.99-8.099 8.98-15.493 6.27-9.289 8.55-15.522 7.38-20.171-0.92-3.701 0.01-9.0466 2.08-11.879 3.27-4.4647 3.8-3.2435 3.98 9.172 0.19 12.557-1.17 15.929-11.06 27.371-6.2 7.177-11.32 12.127-11.36 11z"/>
 <metadata>
  <rdf:RDF>
   <cc:Work>
    <dc:format>image/svg+xml</dc:format>
    <dc:type rdf:resource="http://purl.org/dc/dcmitype/StillImage"/>
    <cc:license rdf:resource="http://creativecommons.org/licenses/publicdomain/"/>
    <dc:publisher>
     <cc:Agent rdf:about="http://openclipart.org/">
      <dc:title>Openclipart</dc:title>
     </cc:Agent>
    </dc:publisher>
   </cc:Work>
   <cc:License rdf:about="http://creativecommons.org/licenses/publicdomain/">
    <cc:permits rdf:resource="http://creativecommons.org/ns#Reproduction"/>
    <cc:permits rdf:resource="http://creativecommons.org/ns#Distribution"/>
    <cc:permits rdf:resource="http://creativecommons.org/ns#DerivativeWorks"/>
   </cc:License>
  </rdf:RDF>
 </metadata>
</svg>
